<?xml version="1.0" standalone="no"?>
<!DOCTYPE svg PUBLIC "-//W3C//DTD SVG 1.1//EN" "http://www.w3.org/Graphics/SVG/1.1/DTD/svg11.dtd" >
<svg xmlns="http://www.w3.org/2000/svg">
  <metadata>Created by iconfont</metadata>
  <defs>
  <font id="iconfont" horiz-adv-x="1024">
    <font-face
      font-family="iconfont"
      font-weight="400"
      font-stretch="normal"
      units-per-em="1024"
      ascent="896"
      descent="-128"
    />
      <missing-glyph />
      
      <glyph glyph-name="bijiben" unicode="&#58896;" d="M876.544 348.16l3.072 0-731.136 0 0 434.176q0 43.008 21.504 66.048t65.536 23.04l558.08 0q46.08 0 65.024-26.112t17.92-67.072l0-430.08zM800.768 799.744l-579.584 0 0-323.584 579.584-1.024 0 324.608zM563.2 411.648q0 14.336-19.456 16.384l-62.464 0q-19.456 0-19.456-16.384 0-5.12 5.12-10.24t13.312-6.144l61.44 1.024q9.216 0 15.36 5.12t6.144 10.24zM859.136 289.792q11.264 0 15.36-7.168t12.288-20.48q4.096-7.168 15.36-25.6t24.064-39.424 24.064-39.424 15.36-24.576q8.192-13.312 13.824-25.088t-7.68-28.16q-26.624-31.744-46.08-38.912t-29.696-7.168l-38.912 0-89.088 0-121.856 0-138.24 0-137.216 0q-67.584 0-121.344 0.512t-87.552 0.512l-38.912 0q-8.192 0-16.896 4.096t-17.92 10.752-16.896 14.336-13.824 14.848q-7.168 9.216-9.216 16.384t-0.512 12.8 5.632 10.752 8.192 12.288q4.096 6.144 13.824 22.016t20.992 35.328l24.576 38.912q11.264 19.456 19.456 32.768t13.824 19.968 11.776 8.704 13.312 1.536 18.432-0.512l661.504 0zM909.312 100.352q0 7.168-6.144 11.776t-13.312 4.608l-747.52 0q-7.168 0-14.336-4.608t-7.168-11.776 6.144-12.288 13.312-5.12l748.544 0q7.168 0 13.824 5.12t6.656 12.288z"  horiz-adv-x="1024" />
      
      <glyph glyph-name="xinshouxuetang" unicode="&#58897;" d="M368.783217 201.398601l107.412587 0-203.572428-265.974026-69.562438 49.102897zM837.306693 896q23.528472 0 40.407592-16.879121t16.879121-40.407592l0-450.10989-765.186813 0 0 450.10989q0 23.528472 16.879121 40.407592t40.407592 16.879121l650.613387 0zM129.406593 324.155844l765.186813 0 0-6.137862q0-23.528472-16.879121-40.407592t-40.407592-16.879121l-650.613387 0q-23.528472 0-40.407592 16.879121t-16.879121 40.407592l0 6.137862zM618.38961 201.398601l166.745255-208.687313-68.539461-50.125874-207.664336 258.813187 109.458541 0z"  horiz-adv-x="1024" />
      
      <glyph glyph-name="yunxiazai" unicode="&#58900;" d="M1024 147.456q0-25.6-8.704-48.128t-24.064-40.96-36.352-30.208-45.568-15.872l0-2.048-21.504 0-1.024 0-664.576 0q-2.048 0-2.56-0.512t-2.56-0.512-3.072 0.512-3.072 0.512l-6.144 0 0 1.024q-43.008 2.048-80.384 19.456t-65.024 46.592-43.52 67.584-15.872 81.408 15.872 80.896 43.008 66.56 63.488 47.104 78.336 21.504q7.168 66.56 36.864 124.416t76.288 100.864 107.008 67.584 129.024 24.576q72.704 0 137.216-27.648t112.128-75.776 75.264-112.128 27.648-136.704q0-32.768-6.144-64t-17.408-59.904q2.048 0 4.608 0.512t4.608 0.512q28.672 0 53.248-10.752t43.008-29.184 29.184-43.52 10.752-53.76zM687.104 299.008q12.288 20.48 7.168 23.552t-25.6 3.072q-12.288 0-34.304 0.512t-33.28 0.512q-16.384 0-20.992 13.312t-4.608 36.864q0 32.768-0.512 52.736t-0.512 43.52q0 26.624-3.584 38.912t-29.184 12.288q-18.432 0-27.648-0.512t-25.6-0.512q-27.648 0-34.304-15.872t-6.656-31.232l0-32.768q0-13.312 0.512-25.6t0.512-25.6l0-29.696q0-16.384-4.096-25.088t-19.456-8.704q-6.144-1.024-16.896-1.536t-22.016-1.024-21.504-0.512l-16.384 0q-21.504 0-25.6-13.312t13.312-33.792q17.408-21.504 37.376-46.592t39.424-50.688 37.376-49.664 33.28-41.472q27.648-30.72 53.248 1.024 15.36 17.408 35.84 45.056t41.984 57.856 40.96 58.368 31.744 46.592z"  horiz-adv-x="1024" />
      
      <glyph glyph-name="dianzan" unicode="&#58901;" d="M190.193225 424.588417c14.446014 0 26.139334 11.718903 26.139334 26.13831 0 14.44499-11.69332 26.164916-26.139334 26.164916-0.271176 0-0.490164-0.149403-0.73678-0.149403l-62.496379-0.146333c-1.425466 0.195451-2.90005 0.295735-4.373611 0.295735-19.677155 0-35.621289-16.141632-35.621289-36.114522L86.622358 7.449925c0-19.949354 15.96767-35.597753 35.670407-35.597753 1.916653 0 3.808746-0.292666 5.649674 0l61.022819-0.022513c0.099261 0 0.148379-0.048095 0.24764-0.048095 0.097214 0 0.146333 0.048095 0.24457 0.048095l0.73678 0 0 0.148379c13.413498 0.540306 24.174586 11.422144 24.174586 24.960485 0 13.55983-10.760065 24.441669-24.174586 24.981974l0 0.393973-50.949392 0 1.450025 402.275993L190.193225 424.590464zM926.52241 462.051657c-19.283182 31.445176-47.339168 44.172035-81.289398 45.546336-1.77032 0.246617-3.536546 0.39295-5.380544 0.39295l-205.447139 0.688685c13.462616 39.059598 22.698978 85.58933 22.698978 129.317251 0 28.349675-3.193739 55.962569-9.041934 82.542948l-0.490164-0.049119c-10.638291 46.578852-51.736315 81.31498-100.966553 81.31498-57.264215 0-95.466282-48.15065-95.466282-106.126063 0-3.241834-0.294712-6.387477 0-9.532097-2.996241-108.386546-91.240027-195.548698-196.23636-207.513194l0-54.881958-0.785899-222.227314 0-229.744521 10.709923 0 500.025271-0.222057 8.746198 0.243547c19.35686-0.049119 30.239721 4.817726 47.803749 16.116049 16.682961 10.761088 29.236881 25.50079 37.490869 42.156122 2.260483 3.341095 4.028757 7.075139 5.106298 11.20111l77.018118 344.324116c1.056052 4.053316 1.348718 8.181333 1.056052 12.160971C943.643346 419.553751 938.781618 442.055231 926.52241 462.051657zM893.82573 409.162076l-82.983993-367.783411-0.099261 0.049119c-2.555196-6.141884-6.879688-11.596106-12.872169-15.427364-4.177136-2.727111-8.773827-4.351098-13.414521-4.964058-1.49812 0.195451-3.046383 0-4.620227 0l-477.028511 0.540306-0.171915 407.408897c89.323375 40.266076 154.841577 79.670527 188.596356 173.661202 0.072655-0.024559 0.124843-0.049119 0.195451-0.072655 2.99931 9.137101 6.313799 20.73423 8.697079 33.164331 5.551436 29.185716 5.258771 58.123792 5.258771 58.123792-4.937452 37.98001 25.940812 52.965306 44.364417 52.965306 25.304316-0.860601 50.263777-33.656541 50.263777-52.326762 0 0 5.600555-27.563776 5.649674-57.190537 0.048095-37.366026-4.6673-56.847729-4.6673-56.847729l-0.466628 0c-5.872754-30.879288-16.214287-60.138682-30.464849-86.964654l0.36839-0.342808c-2.358721-4.815679-3.709485-10.220782-3.709485-15.943111 0-19.922748 19.088754-21.742187 38.765909-21.742187l238.761895-0.270153c0 0 14.666024-0.465604 14.690584-0.465604l0-0.100284c12.132318 0.638543 24.221658-5.207605 31.100322-16.409738 5.504364-9.016351 6.437619-19.6045 3.486404-28.988218L893.82573 409.162076zM264.827039-28.31872c0.319272-0.024559 0.441045-0.024559 0.295735 0.024559 0.243547 0.048095 0.367367 0.074701-0.295735 0.074701s-0.539282-0.026606-0.271176-0.074701C264.43409-28.343279 264.532327-28.343279 264.827039-28.31872z"  horiz-adv-x="1024" />
      
      <glyph glyph-name="fenxiang" unicode="&#58903;" d="M395.21518 382.395456l323.135538 312.373427c19.052938 18.416442 19.052938 48.273447 0 66.660212-19.053961 18.416442-49.910737 18.416442-68.964698 0L291.75176 415.709189c-19.052938-18.416442-19.052938-48.273447 0-66.660212l357.633237-345.688183c9.525957-9.207709 22.01234-13.796214 34.497699-13.796214 12.485359 0 24.971741 4.588505 34.466999 13.82896 19.052938 18.416442 19.052938 48.242747 0 66.660212L395.21518 382.395456z"  horiz-adv-x="1024" />
      
      <glyph glyph-name="31dianzan" unicode="&#58907;" d="M194.792475 417.30657c16.167215 0 29.330002 13.163811 29.330002 29.346375 0 16.092513-13.015432 29.212322-29.801746 29.212322-0.086981 0-0.177032 0-0.264013 0l-60.606333-0.177032c-1.560542 0.206708-3.149736 0.325411-4.76963 0.325411-21.291932 0-38.636972-17.537422-38.636972-39.09439l-0.323365-423.853427c0-21.645996 16.9613-38.578644 38.636972-38.578644l1.677199-0.057305c0.707105-0.029676 1.385557-0.059352 2.032286-0.059352 0.823761 0 1.64957 0.029676 1.826602 0.11768l59.926858-0.086981c0.559748 0 1.001817 0.11768 1.089821 0.11768 0 0-0.029676 0-0.116657-0.057305l3.76986 0.147356 0 0.382717c13.517875 2.236947 23.64656 13.84124 23.64656 27.799136 0 13.987572-10.129708 25.589818-23.64656 27.828812l0 0.766456-49.827849 0 1.413186 385.92356L194.792475 417.30964zM918.228001 459.698053c-18.199501 29.66974-45.204551 44.821835-82.22163 46.322002-1.883907 0.25071-3.799536 0.412392-5.77247 0.412392l-195.744149 0.648776c13.398148 40.359196 20.732184 83.750449 20.732184 122.740462 0 27.255761-3.00545 54.686507-8.894577 81.543178l-1.206478 3.196809-0.089028-0.01535c-12.161994 46.837748-53.477982 79.259158-101.626585 79.259158-55.393611 0-97.18032-46.248324-97.18032-107.576087l-0.059352-3.047406c-0.057305-2.222621-0.116657-4.40124 0.059352-6.16849-2.796696-101.715613-83.869153-187.397041-188.559517-199.324698l-3.358491-0.36839-0.76441-274.43128 0-228.491994 13.930267-0.005117 0.587378-0.11154 3.179412 0.027629 0.01535 0.081864 485.653959-0.198521 8.685823 0.236384c19.84907 0 31.038924 5.03569 48.621371 16.344247 16.22452 10.482749 29.359678 25.266453 37.751812 42.316781 2.562359 3.76986 4.418636 7.862062 5.565762 12.251022l75.30101 336.657506c1.089821 4.225231 1.472538 8.643867 1.149173 12.56006C935.660023 417.57263 930.212964 440.099692 918.228001 459.698053zM879.148961 407.192212l-0.912789-3.799536 0.295735-0.074701-80.129992-355.2387-0.148379-0.353041c-2.296299-5.536087-6.15314-10.160407-11.101849-13.340843-3.415796-2.209318-7.185656-3.622504-11.161201-4.239558-0.470721 0.057305-0.941442 0.057305-1.413186 0.057305l-3.03308-0.086981-462.84344 0.530073-0.177032 392.299781c79.540567 35.986609 148.155295 73.959455 183.080735 167.79868l0.295735-0.074701 1.119497 3.328815c3.709485 11.263531 6.596232 22.350031 8.598842 32.909527 5.447059 28.577872 5.212722 56.422034 5.183046 58.041928-1.766226 13.502525 1.206478 24.738427 8.80555 33.394574 8.598842 9.777691 21.673625 14.151301 30.744211 14.151301 22.586414-0.766456 45.526893-30.966269 45.61592-48.163953 0.029676-0.26606 5.38873-26.945699 5.418406-55.186903 0.057305-27.65178-2.651386-45.277206-3.858888-51.828412l-0.500397 0-0.589424-3.062755c-5.595438-29.522384-15.518438-57.794287-29.41903-84.003206l-0.972141-2.856048 0.118704-0.132006c-1.885953-4.696975-2.856048-9.643638-2.856048-14.709003 0-25.032116 27.121707-25.032116 41.697681-25.032116l233.381351-0.264013 7.15598-0.221034c1.266853-0.045025 2.503007-0.089028 3.592828-0.118704l0-0.425695 5.538133 0.248663c10.453073 0 19.937075-5.344728 25.412786-14.296611C880.709503 424.919968 881.829 415.716352 879.148961 407.192212z"  horiz-adv-x="1024" />
      
      <glyph glyph-name="pinglun1" unicode="&#58937;" d="M850.879 799.584h-676.303c-60.681 0-110.049-49.367-110.049-110.049v-446.2c0-60.681 49.367-110.049 110.049-110.049h90.308l132.053-168.415c3.793-4.838 9.599-7.664 15.747-7.664s11.952 2.825 15.747 7.664l132.053 168.415h290.397c60.681 0 110.049 49.367 110.049 110.049l-0 446.2c0 60.681-49.367 110.049-110.049 110.049zM920.911 243.334c0-38.614-31.417-70.031-70.031-70.031h-300.136c-6.147 0-11.952-2.825-15.746-7.664l-122.316-155.996-122.316 155.996c-3.792 4.838-9.598 7.664-15.746 7.664h-100.046c-38.614 0-70.031 31.417-70.031 70.031l-0 446.2c0 38.614 31.417 70.031 70.031 70.031h676.303c38.614 0 70.031-31.417 70.031-70.031l-0-446.2zM272.621 551.473c-44.132 0-80.036-35.904-80.036-80.036 0-44.132 35.904-80.037 80.036-80.037s80.036 35.905 80.036 80.037c-0.001 44.132-35.905 80.036-80.036 80.036zM272.621 431.418c-22.066 0-40.017 17.952-40.017 40.018 0 22.066 17.953 40.017 40.017 40.017 22.066 0 40.017-17.952 40.017-40.017 0-22.066-17.952-40.018-40.017-40.018zM512.728 551.473c-44.132 0-80.036-35.904-80.036-80.036 0-44.132 35.904-80.037 80.036-80.037 44.132 0 80.036 35.905 80.036 80.037-0 44.132-35.904 80.036-80.036 80.036zM512.728 431.418c-22.066 0-40.017 17.952-40.017 40.018 0 22.066 17.952 40.017 40.017 40.017 22.066 0 40.017-17.952 40.017-40.017 0.001-22.066-17.952-40.018-40.017-40.018zM752.836 551.473c-44.131 0-80.036-35.904-80.036-80.036 0-44.132 35.905-80.037 80.036-80.037s80.036 35.905 80.036 80.037c0 44.132-35.905 80.036-80.036 80.036zM752.836 431.418c-22.067 0-40.017 17.952-40.017 40.018 0 22.066 17.952 40.017 40.017 40.017s40.017-17.952 40.017-40.017c0-22.066-17.951-40.018-40.017-40.018z"  horiz-adv-x="1024" />
      
      <glyph glyph-name="back" unicode="&#58919;" d="M254.555203 384 642.784245 778.519929 525.695473 895.9699 15.11017 384 525.695473-127.9699 642.784245-10.519929Z"  horiz-adv-x="1084" />
      
      <glyph glyph-name="pinglun2" unicode="&#59537;" d="M853.333 128c35.413 0 64 20.651 64 55.979v541.44c-0.036 35.307-28.667 63.915-63.979 63.915-0.008 0-0.015-0-0.023-0l-682.665 0c-35.413 0-64-28.587-64-63.915v-541.44c0-35.264 28.672-55.979 64-55.979h201.173l110.016-117.44c7.745-7.787 18.467-12.606 30.315-12.606 11.826 0 22.531 4.802 30.271 12.563l109.462 117.484h201.429zM634.304 170.667h-6.251l-115.797-129.963c-0.107-0.107-116.011 129.963-116.011 129.963h-225.579c-11.776 0-21.333 1.621-21.333 13.312v541.44c-0 0.013-0 0.028-0 0.043 0 11.711 9.494 21.205 21.205 21.205 0.045 0 0.090-0 0.135-0l682.66 0c11.776 0 21.333-9.536 21.333-21.248v-541.44c0-11.755-9.472-13.312-21.333-13.312h-219.029zM341.333 405.333c0 0 0 0 0 0 23.564 0 42.667 19.103 42.667 42.667 0 23.564-19.103 42.667-42.667 42.667-0 0-0 0-0 0-23.564-0-42.667-19.103-42.667-42.667 0-23.564 19.103-42.667 42.667-42.667zM512 405.333c0 0 0 0 0 0 23.564 0 42.667 19.103 42.667 42.667 0 23.564-19.103 42.667-42.667 42.667-0 0-0 0-0 0-23.564-0-42.667-19.103-42.667-42.667 0-23.564 19.103-42.667 42.667-42.667zM682.667 405.333c0 0 0 0 0 0 23.564 0 42.667 19.103 42.667 42.667 0 23.564-19.103 42.667-42.667 42.667-0 0-0 0-0 0-23.564-0-42.667-19.103-42.667-42.667 0-23.564 19.103-42.667 42.667-42.667z"  horiz-adv-x="1024" />
      
      <glyph glyph-name="bijibendiannao" unicode="&#60091;" d="M853.333333 213.333333h42.666667v-85.333333H128v85.333333h42.666667V640h682.666666v-426.666667zM256 554.666667v-298.666667h512V554.666667H256z"  horiz-adv-x="1024" />
      
      <glyph glyph-name="biaoqian" unicode="&#60093;" d="M448 42.666667L170.666667 320 576 725.333333H853.333333v-277.333333L448 42.666667z m0 119.466666L768 469.333333V640h-170.666667l-307.2-320 157.866667-157.866667zM682.666667 597.333333c25.6 0 42.666667-17.066667 42.666666-42.666666s-17.066667-42.666667-42.666666-42.666667-42.666667 17.066667-42.666667 42.666667 17.066667 42.666667 42.666667 42.666666z"  horiz-adv-x="1024" />
      
      <glyph glyph-name="24gl-tags2" unicode="&#59516;" d="M277.333533 640c-58.813333 0-106.666667-47.853333-106.666666-106.666667s47.853333-106.666667 106.666666-106.666666 106.666667 47.853333 106.666667 106.666666-47.853333 106.666667-106.666667 106.666667z m0-170.666667a64 64 0 1 0 64 64 64.073333 64.073333 0 0 0-64-64z m717.793334-90.286666l-416 416A52.986667 52.986667 0 0 1 541.413533 810.666667H53.333533a53.393333 53.393333 0 0 1-53.333333-53.333334v-360.08a52.986667 52.986667 0 0 1 15.62-37.713333l416-416a53.333333 53.333333 0 0 1 75.426667 0l26.286666 26.293333 26.286667-26.293333a53.333333 53.333333 0 0 1 75.426667 0l360.08 360.08a53.4 53.4 0 0 1 0 75.426667z m-518.253334-405.333334a10.666667 10.666667 0 0 0-15.08 0l-416 416A10.573333 10.573333 0 0 0 42.666867 397.253333V757.333333a10.666667 10.666667 0 0 0 10.666666 10.666667h360.08a10.573333 10.573333 0 0 0 7.54-3.126667l416-416a10.666667 10.666667 0 0 0 0-15.08z m488.08 360.08l-360.08-360.08a10.666667 10.666667 0 0 0-15.08 0L563.5002 0l303.626667 303.62a53.4 53.4 0 0 1 0 75.426667L478.166867 768h63.246666a10.573333 10.573333 0 0 0 7.54-3.126667l416-416a10.666667 10.666667 0 0 0 0-15.08z"  horiz-adv-x="1024" />
      
      <glyph glyph-name="xuexi" unicode="&#59377;" d="M942.16192 538.17344v-157.65504l35.92192-43.6224-69.44768-62.8736-63.87712 62.8736 38.31808 44.4416V512.2048C677.888 424.96 621.99808 397.29152 576.512 376.32c-45.50656-20.97152-78.2336-20.97152-123.74016-3.35872-44.72832 17.6128-249.91744 98.95936-356.88448 151.79776-71.0656 35.2256-75.85792 57.87648 1.57696 88.064C198.06208 652.22656 354.52928 715.96032 442.368 750.34624c51.89632 21.8112 79.83104 33.54624 127.73376 9.216 85.44256-36.88448 270.66368-112.35328 368.06656-154.29632 84.64384-38.56384 27.9552-51.15904 3.9936-67.09248zM586.87488 310.90688c49.50016 20.97152 116.57216 56.19712 190.01344 88.8832v-259.95264S682.68032 35.84 515.80928 35.84c-178.83136 0-275.456 103.99744-275.456 103.99744V383.03744c56.70912-23.49056 119.76704-44.4416 196.4032-71.2704 47.12448-18.47296 107.008-24.33024 150.1184-0.86016z"  horiz-adv-x="1024" />
      
      <glyph glyph-name="back1" unicode="&#58908;" d="M426.666667 512V682.666667l-298.666667-298.666667 298.666667-298.666667v174.933334c213.333333 0 362.666667-68.266667 469.333333-217.6-42.666667 213.333333-170.666667 426.666667-469.333333 469.333333z"  horiz-adv-x="1024" />
      
      <glyph glyph-name="xuexijilu" unicode="&#58912;" d="M512-128C230.4-128 0 102.4 0 384S230.4 896 512 896s512-230.4 512-512-230.4-512-512-512z m0 921.6c-225.28 0-409.6-184.32-409.6-409.6s184.32-409.6 409.6-409.6 409.6 184.32 409.6 409.6-184.32 409.6-409.6 409.6zM665.6 122.88l-204.8 240.64V650.24h102.4v-245.76l184.32-215.04z"  horiz-adv-x="1024" />
      
      <glyph glyph-name="fankui" unicode="&#59643;" d="M277.7344 677.4016a59.25888 59.25888 0 0 1-59.14624-59.392v-470.82496a59.25888 59.25888 0 0 1 59.14624-59.392h469.0432a59.25888 59.25888 0 0 1 59.14624 59.392V618.0352a59.25888 59.25888 0 0 1-59.14624 59.392h-469.0432zM845.71136 65.09056a43.11552 43.11552 0 0 0-43.008-43.13088H192.74752a43.1104 43.1104 0 0 0-43.008 43.13088V676.864a43.10528 43.10528 0 0 0 43.008 43.12576h378.58816V788.04992H192.74752A111.104 111.104 0 0 1 81.92 676.864v-611.77344A111.104 111.104 0 0 1 192.74752-46.08h609.96096a111.104 111.104 0 0 1 110.83776 111.17056V432.64h-67.83488v-367.5648z m80.16896 640.89088L834.28864 797.8496a55.35232 55.35232 0 0 1-78.336 0L368.9728 409.67168a55.808 55.808 0 0 1-13.91104-23.38304l-40.41728-135.72096a55.37792 55.37792 0 0 1 70.4256-68.6592l131.75296 43.64288a55.47008 55.47008 0 0 1 21.82144 13.47584l387.24096 388.4032a55.74656 55.74656 0 0 1-0.00512 78.55104z m-515.4816-371.6096l54.272-54.44608-78.20288-25.90208z m111.65696-15.77984L448.08192 392.79616l268.63104 269.44512 73.96864-74.20416zM838.656 636.14976L764.672 710.3488l30.45888 30.55104 73.97888-74.19904z"  horiz-adv-x="1024" />
      
      <glyph glyph-name="back2" unicode="&#58913;" d="M808.96 435.2H276.48L547.84 706.56c20.48 20.48 20.48 51.2 0 71.68-20.48 20.48-51.2 20.48-71.68 0L189.44 491.52c-25.6-25.6-40.96-61.44-43.52-94.72 0-5.12-2.56-7.68-2.56-12.8s0-10.24 2.56-15.36c2.56-33.28 17.92-66.56 43.52-94.72l286.72-286.72c20.48-20.48 51.2-20.48 71.68 0 20.48 20.48 20.48 51.2 0 71.68L279.04 332.8h529.92c28.16 0 51.2 23.04 51.2 51.2s-23.04 51.2-51.2 51.2z"  horiz-adv-x="1024" />
      
      <glyph glyph-name="zanwu2" unicode="&#58895;" d="M696.422 128.255V642.802l-142.647-36.68c-56.55-14.775-78.965-51.455-64.19-108.514l98.323-376.486c14.775-56.549 51.455-78.965 108.514-64.19l29.548 7.132c-17.321 14.774-29.548 37.19-29.548 64.19z m-7.132 7.132l-39.228-12.227-14.774 41.775 54.002 17.322v-46.87z m2.037 135.514l-81.003-27-14.774 41.775 95.777 29.548V270.9z m0 130.42l-125.325-41.775-12.227 44.323 138.062 44.322-0.51-46.87z m105.967-36.68c0-14.774 9.68-24.454 24.453-24.454s24.454 9.68 24.454 24.454-9.68 24.454-24.454 24.454c-12.227-2.548-24.453-12.227-24.453-24.454z m0-132.967c0-14.774 9.68-24.454 24.453-24.454s24.454 9.68 24.454 24.454-9.68 24.453-24.454 24.453c-12.227 0-24.453-9.68-24.453-24.453z m0-115.646c0-14.774 9.68-24.454 24.453-24.454s24.454 9.68 24.454 24.454-9.68 24.454-24.454 24.454c-12.227 0-24.453-12.227-24.453-24.454z m78.965 273.067h300.067v-49.417H876.26v49.417z m0-132.968h300.067v-49.417H876.26v49.417z m0-115.645h300.067v-49.417H876.26v49.417z m-479.905 9.68c0-9.68 7.133-19.87 19.869-19.87 9.68 0 19.869 7.133 19.869 19.87 0 9.679-7.133 19.868-19.87 19.868s-19.868-7.642-19.868-19.869z m-34.643 170.156c-17.321 0-29.548 12.227-29.548 29.549s12.227 29.548 29.548 29.548 29.549-12.227 29.549-29.548-12.227-29.549-29.549-29.549z m0 54.002c-12.226 0-21.906-9.68-21.906-21.906s9.68-21.907 21.906-21.907 21.907 9.68 21.907 21.907c0.51 9.68-9.68 21.906-21.907 21.906z m1006.68 442.715c-21.907 0-39.229 17.321-39.229 39.228 0 21.906 17.322 39.228 39.228 39.228 21.907 0 39.228-17.322 39.228-39.228 0-21.907-17.321-39.228-39.228-39.228z m-0.001 71.833c-17.321 0-32.095-14.774-32.095-32.096s14.774-32.095 32.095-32.095 32.096 14.774 32.096 32.095-14.775 32.096-32.096 32.096z m196.649-280.709c-19.869 0-36.68 17.322-36.68 36.68 0 19.36 17.32 36.681 36.68 36.681 19.359 0 36.68-17.321 36.68-36.68 0.51-21.907-16.812-36.68-36.68-36.68z m0 63.682c-17.322 0-29.548-12.227-29.548-29.548s12.226-29.549 29.548-29.549 29.548 12.227 29.548 29.549-12.227 29.548-29.548 29.548z m-196.649-93.23c0-9.68 7.132-17.321 17.321-17.321 9.68 0 17.322 7.132 17.322 17.32 0 9.68-7.133 17.322-17.322 17.322s-17.321-7.641-17.321-17.321zM231.292 238.80600000000004l2.547 7.132 59.096-9.68-2.547-7.132-59.096 9.68zM251.16 209.25800000000004l17.322 59.096 7.132-2.547-19.869-59.097-4.585 2.548z m1181.421 529.321l41.775-29.548-41.775-34.643V738.58z m68.776 46.87l64.191 17.321v-5.094l-64.19-17.322v5.095zM1518.679 819.582l5.094 2.547 21.907-59.096-7.133-2.547-19.868 59.096zM512.51 565.365l38.208 10.19 10.19-38.21-38.21-10.189-10.189 38.21z m112.589 32.605l10.189-38.209-38.21-10.189-10.188 38.21 38.209 10.188z m66.228-54.002l-162.515-44.322 12.227-41.775 150.288 39.228v46.87zM720.876 69.15800000000002l-54.002-14.774c-41.775-9.68-83.55 14.774-93.74 54.002l-113.098 428.45c-9.68 41.775 14.774 83.55 54.002 93.74l181.874 49.416v12.227l-184.421-49.417c-49.417-12.227-76.418-61.644-64.191-110.551L560.398 103.79999999999995c9.68-39.228 46.87-66.229 88.645-66.229 7.132 0 14.774 0 21.906 2.547l66.23 17.322c-6.114 4.075-11.209 6.623-16.303 11.717zM689.29 401.321l-120.74-36.68-9.68 36.68 130.42 41.776v7.132l-140.1-44.323 17.321-49.416L689.8 395.717v5.604h-0.51z m152.326 138.062l-7.132 12.227 66.228 46.87-66.228 44.322 7.132 12.227 83.55-56.55-83.55-59.096z m300.577 0l-83.55 56.55 83.55 56.549 7.132-12.227-66.228-44.323 66.228-46.87-7.132-9.679zM986.81 438.002c-27.001 0-49.417 21.906-49.417 49.417 0 27.51 21.907 49.417 49.417 49.417 27 0 49.417-21.907 49.417-49.417s-22.416-49.417-49.417-49.417z m0 86.607c-19.869 0-36.68-17.321-36.68-36.68 0-19.87 17.32-36.681 36.68-36.681s36.68 17.321 36.68 36.68c-2.037 21.907-16.811 36.681-36.68 36.681zM300.068 44.70399999999995h1388.258v-17.32H300.068v17.32z m-189.517 0H233.84v-17.32H110.55v17.32zM0 44.70399999999995h64.191v-17.32H0v17.32z m1868.163-17.32h-123.287v17.32h123.287v-17.32z m110.551 0h-64.19v17.32h64.19v-17.32zM425.902-101h71.324v-21.906h-71.324V-101z m135.005 0h251.16v-21.906h-251.16V-101z m334.71 0h425.903v-21.906H895.618V-101z m509.454 0h154.873v-21.906h-154.873V-101zM1183.968 780.354H772.84c-49.417 0-91.192-39.228-91.192-91.192v-560.907c0-49.417 39.228-91.192 91.192-91.192h425.902c49.417 0 91.192 39.228 91.192 91.192V671.84l-105.966 108.513z m93.23-652.1c0-41.774-34.643-76.417-76.418-76.417H772.33c-41.775 0-76.418 34.643-76.418 76.418V689.162c0 41.775 34.643 76.418 76.418 76.418h406.034l98.325-98.324v-539.001h0.509zM1169.194 642.293l2.547 135.514 118.193-120.74-120.74-14.774z m14.774 103.418l-2.547-88.644 76.418 9.68-73.87 78.964zM689.29 612.744l-34.643-9.68 9.68-36.68 24.453 7.132v39.228h0.51z m0-339.295l-76.418-24.454-12.227 36.68 88.645 27.002v7.641l-95.778-29.548 14.775-49.417 81.003 24.454v7.642z m0-135.515l-39.228-12.227-9.68 36.681L689.8 179.71000000000004v7.133l-59.097-19.869 17.322-49.417 41.775 12.227-0.51 8.151z"  horiz-adv-x="1981" />
      
      <glyph glyph-name="wenjianjia" unicode="&#58881;" d="M855.04 510.976q19.456-2.048 38.912-10.24t33.792-23.04 21.504-37.376 2.048-54.272q-2.048-8.192-8.192-40.448t-14.336-74.24-18.432-86.528-19.456-76.288q-5.12-18.432-14.848-37.888t-25.088-35.328-36.864-26.112-51.2-10.24l-567.296 0q-21.504 0-44.544 9.216t-42.496 26.112-31.744 40.96-12.288 53.76l0 439.296q0 62.464 33.792 97.792t95.232 35.328l503.808 0q22.528 0 46.592-8.704t43.52-24.064 31.744-35.84 12.288-44.032l0-11.264-53.248 0q-40.96 0-95.744 0.512t-116.736 0.512-115.712 0.512-92.672 0.512l-47.104 0q-26.624 0-41.472-16.896t-23.04-44.544q-8.192-29.696-18.432-62.976t-18.432-61.952q-10.24-33.792-20.48-65.536-2.048-8.192-2.048-13.312 0-17.408 11.776-29.184t29.184-11.776q31.744 0 43.008 39.936l54.272 198.656q133.12-1.024 243.712-1.024l286.72 0z"  horiz-adv-x="1024" />
      
      <glyph glyph-name="jinru" unicode="&#58882;" d="M835.584 832.512q26.624 0 49.664-10.24t40.448-27.648 27.648-40.448 10.24-49.664l0-641.024q0-26.624-10.24-49.664t-27.648-40.448-40.448-27.648-49.664-10.24l-448.512 0q-26.624 0-49.664 10.24t-40.448 27.648-27.648 40.448-10.24 49.664l0 192.512 128 0 0-192.512 448.512 0 0 641.024-448.512 0 0-192.512-128 0 0 192.512q0 26.624 10.24 49.664t27.648 40.448 40.448 27.648 49.664 10.24l448.512 0zM513.024 281.6q0 19.456-9.728 28.672t-24.064 9.216l-378.88 0q-14.336 0-25.088 7.68t-10.752 26.112l0 52.224q0 29.696 9.216 37.376t35.84 7.68l31.744 0q24.576 0 58.368-0.512t73.728-1.024 77.312-1.024 69.12-0.512l51.2 0q22.528 0 32.256 16.384t9.728 35.84l0 49.152q0 20.48 8.704 25.6t26.112-9.216 47.104-32.768 61.952-37.888 62.976-38.4 49.152-34.304q14.336-11.264 14.336-30.72t-11.264-28.672q-16.384-14.336-44.544-32.256t-59.392-36.864-60.928-37.376-48.128-33.792q-23.552-19.456-34.816-19.968t-11.264 30.208l0 49.152z"  horiz-adv-x="1024" />
      
      <glyph glyph-name="shouji" unicode="&#58883;" d="M820.409449 98.771654q0-25.19685-10.07874-46.866142t-27.716535-38.299213-41.322835-26.204724-50.897638-9.574803l-357.795276 0q-27.212598 0-50.897638 9.574803t-41.322835 26.204724-27.716535 38.299213-10.07874 46.866142l0 675.275591q0 25.19685 10.07874 47.370079t27.716535 38.80315 41.322835 26.204724 50.897638 9.574803l357.795276 0q27.212598 0 50.897638-9.574803t41.322835-26.204724 27.716535-38.80315 10.07874-47.370079l0-675.275591zM738.771654 725.669291l-455.559055 0 0-577.511811 455.559055 0 0 577.511811zM510.992126 119.937008q-21.165354 0-36.787402-15.11811t-15.622047-37.291339q0-21.165354 15.622047-36.787402t36.787402-15.622047q22.173228 0 37.291339 15.622047t15.11811 36.787402q0 22.173228-15.11811 37.291339t-37.291339 15.11811zM591.622047 811.338583q0 8.062992-5.03937 12.598425t-11.086614 4.535433l-128 0q-5.03937 0-10.582677-4.535433t-5.543307-12.598425 5.03937-12.598425 11.086614-4.535433l128 0q6.047244 0 11.086614 4.535433t5.03937 12.598425z"  horiz-adv-x="1024" />
      
      <glyph glyph-name="vip" unicode="&#58884;" d="M236.144744 282.169777l-77.391725 278.248212L62.277897 560.417989l116.19504-389.152091 97.400228 0 116.860216 389.152091-75.975412 0L236.144744 282.169777zM456.617934 171.265898l90.40769 0L547.025625 560.419012 456.617934 560.419012 456.617934 171.265898zM932.567938 510.247332c-14.173372 18.808368-30.280871 31.868825-48.325569 39.192627-18.043674 7.310499-44.0623 10.979052-78.070205 10.979052L653.70148 560.419012l0-389.152091 92.098261 0L745.799742 315.815061l63.767892 0c27.593559 0 47.848688 1.704828 60.791995 5.128811 12.94433 3.423983 26.308234 10.357905 40.10399 20.802792 13.796779 10.459213 24.47337 24.803919 32.02875 43.049468 7.556403 18.24555 11.326417 36.96796 11.326417 56.167231C953.819809 468.33885 946.740286 491.423615 932.567938 510.247332zM848.96449 402.189268c-9.071981-10.459213-24.847916-15.673981-47.327804-15.673981l-58.942805 0L742.69388 489.718787l58.653198 0c20.601021 0 35.943056-4.666276 46.056806-13.969153 10.112726-9.317203 15.168066-21.856797 15.168066-37.632085C862.572973 424.609906 858.036471 412.64848 848.96449 402.189268z"  horiz-adv-x="1024" />
      
      <glyph glyph-name="gengduo" unicode="&#58885;" d="M746.662019 384c0-51.835575 42.044582-93.865831 93.865831-93.865831 51.851948 0 93.865831 42.029232 93.865831 93.865831 0 51.836599-42.013883 93.865831-93.865831 93.865831C788.706601 477.864808 746.662019 435.836599 746.662019 384zM89.604272 384c0-51.835575 42.043558-93.865831 93.864808-93.865831 51.822272 0 93.865831 42.029232 93.865831 93.865831 0 51.836599-42.043558 93.865831-93.865831 93.865831C131.648854 477.864808 89.604272 435.836599 89.604272 384zM418.132634 384c0-51.835575 42.013883-93.865831 93.866854-93.865831 51.821249 0 93.864808 42.029232 93.864808 93.865831 0 51.836599-42.043558 93.865831-93.864808 93.865831C460.146517 477.864808 418.132634 435.836599 418.132634 384z"  horiz-adv-x="1024" />
      
      <glyph glyph-name="good" unicode="&#58886;" d="M530.562 586.478c-50.992 62.488-74.67 128.688-61.796 172.766l9.524 32.61-33.538 5.418c-11.302 1.826-22.386 2.75-32.944 2.75-49.412 0-89.318-20.412-112.368-57.476-37.542-60.368-27.956-158.396 27.468-285.146L137.758 457.4c-29.022 0-53.48-13.194-68.87-37.152-11.724-18.252-17.922-42.376-17.922-69.758 0-38.376 11.938-78.584 33.056-104.62-0.08-0.138-0.158-0.276-0.236-0.414-8.246-14.554-12.426-33.208-12.426-55.442 0-30.916 8.336-66.19 22.3-94.354 9.26-18.68 20.426-33.18 32.908-43.038-0.388-3.656-0.582-7.548-0.582-11.698 0-27.39 8.814-63.128 22.456-91.042 13.734-28.104 31.614-47.388 51.872-56.464 6.06-27.562 22.682-51.316 48.284-68.384 26.634-17.754 61.838-27.534 99.126-27.534 141.044 0 183.952 20.096 229.376 41.372 38.64 18.1 78.598 36.814 193.656 48.774l26.898 2.796L797.654 419.728l-21.38 6.414C678.188 455.564 590.926 512.506 530.562 586.478zM887.632 457.402l-31.98 0 0-89.996 1.99 0 0-419.92-1.99 0 0-89.994 31.98 0c50.46 0 89.99 52.704 89.99 119.984l0 359.94C977.624 404.698 938.094 457.402 887.632 457.402z"  horiz-adv-x="1024" />
      
      <glyph glyph-name="xiazai" unicode="&#58889;" d="M828.975746 1.874953 190.189132 1.874953c-70.550823 0-127.753639 57.18542-127.753639 127.752616L62.435493 289.325757c0 17.634636 14.308891 31.933293 31.93227 31.933293l63.889099 0c17.634636 0 31.93227-14.298658 31.93227-31.933293l0-95.821369c0-35.282574 28.596292-63.877843 63.87682-63.877843L765.098927 129.626545c35.281551 0 63.87682 28.595268 63.87682 63.877843l0 95.821369c0 17.634636 14.298658 31.933293 31.943526 31.933293l63.877843 0c17.634636 0 31.933293-14.298658 31.933293-31.933293l0-159.699212C956.729385 59.060373 899.538849 1.874953 828.975746 1.874953L828.975746 1.874953zM249.938957 628.490364c12.921287 12.919241 33.884738 12.919241 46.807049 0l148.97087-148.971893L445.716876 801.10677c0 17.634636 14.300704 31.94762 31.933293 31.94762l63.875796 0c17.637706 0 31.945573-14.312984 31.945573-31.94762l0-321.588299 148.97087 148.971893c12.921287 12.919241 33.875528 12.919241 46.796816 0l46.814212-46.818305c12.921287-12.922311 12.921287-33.874505 0-46.807049L552.261471 271.069975c-1.140986-1.137916-21.664416-13.68365-42.315758-13.69286-20.87647-0.010233-41.878806 12.541641-43.020816 13.69286L203.121676 534.86501c-12.922311 12.933567-12.922311 33.884738 0 46.807049L249.938957 628.490364 249.938957 628.490364z"  horiz-adv-x="1024" />
      
      <glyph glyph-name="svip" unicode="&#58997;" d="M649.143 481.714l-18.286 0c-10.112 0-18.286-8.192-18.286-18.286l0-182.857c0-10.094 8.174-18.286 18.286-18.286l18.286 0c10.112 0 18.286 8.192 18.286 18.286l0 182.857c0 10.094-8.174 18.286-18.286 18.286zM539.429 481.714l-36.571 0c0 0 0-106.277 0-128 0.567-29.147-36.571-36.571-36.571-36.571s-36.571 7.424-36.571 36.571c0 25.143 0 128 0 128l-36.571 0c-10.094 0-18.286-8.192-18.286-18.286l0-128c0.567-1.902 64.384-73.71 73.143-73.143l36.571 0c10.478 0 73.143 73.527 73.143 73.143l0 128c0 10.094-8.174 18.286-18.286 18.286zM841.143 481.714l-54.857 0c-6.345 0-12.343-1.207-18.103-2.926-2.779 1.701-5.851 2.926-9.326 2.926l-18.286 0c-10.112 0-18.286-8.192-18.286-18.286l0-182.857c0-10.112 8.174-18.286 18.286-18.286l18.286 0c10.112 0 18.286 8.174 18.286 18.286l0 55.79c3.017-0.457 6.016-0.933 9.143-0.933l54.857 0c35.346 0 64 28.654 64 64l0 18.286c0 35.346-28.654 64-64 64zM850.286 390.286c0-10.094-8.192-18.286-18.286-18.286l-54.857 0 0 73.143 54.857 0c10.094 0 18.286-8.174 18.286-18.286l0-36.571zM284.507 408.571l19.383 0c6.729 0 12.635 3.237 16.11 8.137 0 13.733-2.706 22.619-6.821 28.434l0.421 0c-10.295 21.559-32.11 36.571-57.6 36.571-3.145 0-6.126-0.622-9.143-1.097l0 1.097-54.857 0 0-0.914c-30.976-4.48-54.857-30.866-54.857-63.086 0-34.597 27.483-62.592 61.787-63.781-0.037-0.073-0.073-0.146-0.11-0.219l48.037 0c10.094 0 18.286-8.174 18.286-18.286l0-18.286c0-10.112-8.192-18.286-18.286-18.286l-54.857 0 0 18.286c0 10.112-8.667 18.286-19.365 18.286l-19.383 0c-6.711 0-12.635-3.237-16.11-8.137-0.055-13.897 2.834-22.747 7.205-28.434l-0.805 0c10.295-21.559 32.128-36.571 57.6-36.571 3.145 0 6.126 0.622 9.143 1.097l0-1.097 54.857 0 0 0.933c30.976 4.462 54.857 30.866 54.857 63.067 0 34.45-27.282 62.336-61.385 63.744 0.037 0.073 0.055 0.183 0.091 0.256l-48.421 0c-10.094 0-18.286 8.192-18.286 18.286l0 18.286c0 10.094 8.192 18.286 18.286 18.286l54.857 0 0-18.286c0-10.094 8.667-18.286 19.365-18.286z"  horiz-adv-x="1024" />
      
      <glyph glyph-name="vip1" unicode="&#58998;" d="M384 481.714l-36.571 0c0 0 0-106.277 0-128 0.567-29.147-36.571-36.571-36.571-36.571s-36.571 7.424-36.571 36.571c0 25.143 0 128 0 128l-36.571 0c-10.094 0-18.286-8.192-18.286-18.286l0-128c0.567-1.902 64.384-73.71 73.143-73.143l36.571 0c10.478 0 73.143 73.527 73.143 73.143l0 128c0 10.094-8.192 18.286-18.286 18.286zM493.714 481.714l18.286 0c10.112 0 18.286-8.192 18.286-18.286l0-182.857c0-10.094-8.174-18.286-18.286-18.286l-18.286 0c-10.112 0-18.286 8.192-18.286 18.286l0 182.857c0 10.094 8.174 18.286 18.286 18.286zM722.286 481.714l-54.857 0c-6.345 0-12.343-1.207-18.103-2.926-2.779 1.701-5.851 2.926-9.326 2.926l-18.286 0c-10.112 0-18.286-8.192-18.286-18.286l0-64 0-118.857c0-10.112 8.174-18.286 18.286-18.286l18.286 0c10.112 0 18.286 8.174 18.286 18.286l0 55.79c3.017-0.457 6.016-0.933 9.143-0.933l54.857 0c35.365 0 64 28.635 64 64l0 18.286c0 35.346-28.635 64-64 64zM731.429 390.286c0-10.094-8.174-18.286-18.286-18.286l-54.857 0 0 73.143 54.857 0c10.112 0 18.286-8.174 18.286-18.286l0-36.571z"  horiz-adv-x="1024" />
      
      <glyph glyph-name="bianji" unicode="&#58890;" d="M872.623 434.215 432.968 0 128 1.052l0.594 299.557 439.655 434.225c0 0 63.982 70.414 135.277 0s108.472-107.133 169.097-167.008C933.248 507.94 872.623 434.215 872.623 434.215zM228.656 101.315l166.394-0.664 7.564 7.574L237 274.071l-7.564-7.574L228.656 101.315zM759.4 531.851l-99.373 99.509c-22.864 22.899-47.172 19.089-64.516 1.731L309.271 346.443l165.609-165.851 286.246 286.653C778.464 484.603 782.264 508.952 759.4 531.851z"  horiz-adv-x="1024" />
      
      <glyph glyph-name="setting" unicode="&#58910;" d="M846.416977 474.845031c-7.857968 29.366841-19.485797 57.192583-34.354436 82.913385l65.271586 98.513688-0.107447 0.107447-92.849688 92.848665-0.107447 0.107447-98.513688-65.271586c-25.718755 14.869662-53.544497 26.495444-82.912361 34.355459L579.340199 834.219935l-0.152473 0L447.877075 834.219935l-0.151449 0-23.502273-115.801423c-29.366841-7.858992-57.192583-19.485797-82.914408-34.355459l-98.513688 65.271586-0.107447-0.107447-92.849688-92.849688-0.107447-0.107447 65.272609-98.513688c-14.869662-25.720801-26.495444-53.546543-34.355459-82.913385L64.848449 451.342758l0-0.152473 0-131.309628 0-0.151449 115.801423-23.50125c7.860015-29.365818 19.485797-57.192583 34.355459-82.913385l-65.271586-98.514711 0.107447-0.106424 92.849688-92.848665 0.107447-0.107447 98.513688 65.271586c25.720801-14.869662 53.546543-26.495444 82.914408-34.355459l23.502273-115.801423 0.152473 0 131.309628 0 0.151449 0 23.502273 115.801423c29.366841 7.860015 57.192583 19.485797 82.912361 34.355459l98.513688-65.271586 0.107447 0.107447 92.850711 92.848665 0.107447 0.106424-65.272609 98.514711c14.870686 25.720801 26.497491 53.546543 34.354436 82.913385l115.802446 23.50125 0 0.152473L962.220447 451.191308l0 0.151449L846.416977 474.845031zM669.350213 385.534959c0-86.054935-69.761853-155.815765-155.817812-155.815765-86.054935 0-155.818835 69.76083-155.818835 155.815765 0 86.055958 69.762877 155.816788 155.818835 155.816788C599.589382 541.351748 669.350213 471.590917 669.350213 385.534959z"  horiz-adv-x="1024" />
      
      <glyph glyph-name="pinglun" unicode="&#58905;" d="M867.266 111.405h-186.088c-62.59-60.688-158.626-169.57-158.626-169.57-5.817-6.059-15.288-6.059-21.086 0 0 0-131.2 135.805-162.895 169.57h-181.818c-67.418 0-122.046 63.007-122.046 131.367v464.15c0 68.359 53.434 123.788 119.323 123.788h715.939c65.907 0 119.323-55.429 119.323-123.788v-464.15c0.001-68.35-54.626-131.367-122.025-131.367v0zM273.353 522.361c-32.944 0-59.662-27.715-59.662-61.899 0-34.174 26.716-61.89 59.662-61.89s59.662 27.715 59.662 61.89c0 34.184-26.718 61.899-59.662 61.899v0zM511.999 522.361c-32.944 0-59.662-27.715-59.662-61.899 0-34.174 26.736-61.89 59.662-61.89 32.944 0 59.662 27.715 59.662 61.89 0 34.184-26.718 61.899-59.662 61.899v0zM750.646 522.361c-32.926 0-59.662-27.715-59.662-61.899 0-34.174 26.736-61.89 59.662-61.89 32.964 0 59.662 27.715 59.662 61.89 0 34.184-26.698 61.899-59.662 61.899v0zM750.646 522.361z"  horiz-adv-x="1024" />
      
      <glyph glyph-name="androidgengduo" unicode="&#59277;" d="M415.930119 672.209642c0 52.980346 43.003528 95.983874 95.983874 95.983874s95.983874-43.003528 95.983874-95.983874-43.003528-95.983874-95.983874-95.983874S415.930119 619.229296 415.930119 672.209642zM415.930119 384.258021c0 52.980346 43.003528 95.983874 95.983874 95.983874s95.983874-43.003528 95.983874-95.983874-43.003528-95.983874-95.983874-95.983874S415.930119 331.277675 415.930119 384.258021zM415.930119 96.134386c0 52.980346 43.003528 95.983874 95.983874 95.983874s95.983874-43.003528 95.983874-95.983874-43.003528-95.983874-95.983874-95.983874S415.930119 43.326054 415.930119 96.134386z"  horiz-adv-x="1024" />
      
      <glyph glyph-name="fanhui" unicode="&#58898;" d="M387.657 369.371l464.457-497.371h-193.829l-486.4 497.371 482.743 526.629h197.486l-464.457-526.629z"  horiz-adv-x="1024" />
      
      <glyph glyph-name="28" unicode="&#58906;" d="M512 128c-211.2 0-384 172.8-384 384s172.8 384 384 384 384-172.8 384-384S723.2 128 512 128zM512 832C332.8 832 192 691.2 192 512s140.8-320 320-320 320 140.8 320 320S691.2 832 512 832zM512-128c-108.8 0-192 83.2-192 192l0 12.8c0 12.8 6.4 19.2 12.8 25.6 6.4 6.4 19.2 6.4 32 0 89.6-44.8 198.4-44.8 288 0 12.8 6.4 19.2 6.4 32 0 6.4-6.4 12.8-19.2 12.8-25.6L697.6 64C704-44.8 620.8-128 512-128zM390.4 32C403.2-25.6 454.4-64 512-64s108.8 38.4 121.6 96C556.8 0 467.2 0 390.4 32zM627.2 339.2c-19.2 0-32 12.8-32 32L595.2 480 531.2 422.4c-12.8-12.8-32-12.8-44.8 0L435.2 480l0-108.8c0-19.2-12.8-32-32-32S371.2 352 371.2 371.2L371.2 550.4C371.2 563.2 377.6 576 384 582.4c12.8 6.4 25.6 0 32-6.4L512 492.8 601.6 576C614.4 582.4 627.2 582.4 640 582.4c12.8-6.4 19.2-19.2 19.2-32l0-179.2C652.8 352 640 339.2 627.2 339.2z"  horiz-adv-x="1024" />
      
      <glyph glyph-name="zuixinpeizhi" unicode="&#58911;" d="M458.121 750.041l-398.697 0c-29.056 0-52.741-23.625-52.741-52.741 0-29.309 23.625-52.741 52.741-52.741l398.697 0c29.12 0 52.741 23.625 52.741 52.741s-23.561 52.741-52.741 52.741zM458.121 433.522l-398.697 0c-29.056 0-52.741-23.561-52.741-52.741 0-29.309 23.625-52.741 52.741-52.741l398.697 0c29.12 0 52.741 23.625 52.741 52.741s-23.561 52.741-52.741 52.741zM458.121 117.001l-398.697 0c-29.056 0-52.741-23.625-52.741-52.741 0-29.372 23.625-52.741 52.741-52.741l398.697 0c29.12 0 52.741 23.625 52.741 52.741 0.064 29.182-23.561 52.741-52.741 52.741zM528.085 496.813l189.937 0 0-537.849c0-29.245 23.434-52.932 52.741-52.932 29.12 0 52.741 23.562 52.741 52.932l0 537.849 189.937 0c10.547 0 11.559 13.958 6.695 20.908-72.577 105.549-217.729 316.709-217.729 316.709s-17.939 29.562-31.645 27.477c-15.855 0-31.645-27.477-31.645-27.477s-145.153-211.098-217.667-316.581c-4.801-7.011-3.917-21.034 6.633-21.034z"  horiz-adv-x="1024" />
      
      <glyph glyph-name="ai-out" unicode="&#58946;" d="M1014.641 410.665l-170.66 213.33c-8.264 10.322-20.603 16.015-33.321 16.015-4.721 0-9.492-0.788-14.121-2.417-17.101-5.99-28.539-22.129-28.539-40.253v-128h-341.33c-47.124 0-85.33-38.195-85.33-85.34 0-47.124 38.205-85.33 85.33-85.33h341.33v-127.99c0-18.125 11.438-34.273 28.539-40.274 4.628-1.618 9.4-2.406 14.121-2.406 12.718 0 25.057 5.704 33.321 16.015l170.66 213.34c12.483 15.585 12.483 37.724-0 53.309v0zM597.34 42.67l-341.34 0.010c-0.225 0-0.44-0.010-0.666-0.010-46.756 0-84.664 38.205-84.664 85.34l0 511.99h0.010c0 0.225-0.010 0.451-0.010 0.666 0 46.756 38.205 84.664 85.33 84.664h341.34c47.124 0 85.32 38.205 85.32 85.34s-38.195 85.33-85.32 85.33h-426.67c-94.259 0-170.67-76.411-170.67-170.67v-682.66c0-94.249 76.411-170.67 170.67-170.67h426.67c47.124 0 85.32 38.205 85.32 85.34s-38.195 85.33-85.32 85.33v0zM597.34 42.67z"  horiz-adv-x="1025" />
      
      <glyph glyph-name="liulan" unicode="&#58944;" d="M510.557 691.646c-302.839 0-458.323-306.151-458.323-306.151s117.33-306.19 458.323-306.19c308.802 0 458.301 304.995 458.301 304.995s-150.691 307.345-458.301 307.345v0 0zM511.246 194.134c-110.73 0-190.773 83.726-190.773 191.364 0 107.648 80.049 191.352 190.773 191.352 110.724 0 190.764-83.697 190.764-191.352 0.001-107.639-80.039-191.364-190.764-191.364v0 0zM511.246 500.324c-63.286-0.145-114.461-53.321-114.461-114.827 0-61.473 51.176-114.821 114.461-114.821 63.282 0 114.454 53.352 114.454 114.821 0.004 61.527-51.17 114.946-114.454 114.827v0 0z"  horiz-adv-x="1024" />
      
      <glyph glyph-name="gou" unicode="&#58940;" d="M337.390193 104.178967 61.493539 383.266289l137.870044 139.548266 275.899724-279.090393L337.390193 104.178967 337.390193 104.178967zM406.248468 34.40995 268.378423 173.952076l551.789215 558.177716 137.873114-139.545196L406.248468 34.40995 406.248468 34.40995z"  horiz-adv-x="1024" />
      
      <glyph glyph-name="icon_right" unicode="&#58921;" d="M483.848 28.192c-17.472-17.984-42.112-28.192-67.968-28.192-25.824 0-50.464 10.208-67.936 28.192l-320.48 320.256c-36.64 38.688-36.64 97.216 0 135.904 16.8 16.704 39.84 26.56 64.224 27.392 27.040 1.248 53.248-8.768 71.776-27.392l252.416-252.352 444.736 444.448c17.696 17.6 42.272 27.552 67.968 27.552 25.664 0 50.24-9.952 67.936-27.552 36.64-38.656 36.64-97.152 0-135.808l-512.672-512.448z"  horiz-adv-x="1025" />
      
      <glyph glyph-name="shanchu" unicode="&#59052;" d="M780.8 185.6 582.4 390.4l198.4 198.4c19.2 19.2 19.2 51.2 0 70.4-19.2 19.2-51.2 19.2-70.4 0L518.4 454.4 313.6 652.8c-19.2 19.2-51.2 19.2-76.8 0-19.2-19.2-19.2-51.2 0-76.8l198.4-198.4-198.4-198.4c-19.2-19.2-19.2-51.2 0-70.4 19.2-19.2 51.2-19.2 70.4 0l198.4 198.4 198.4-198.4c19.2-19.2 51.2-19.2 76.8 0C806.4 134.4 806.4 166.4 780.8 185.6z"  horiz-adv-x="1024" />
      
      <glyph glyph-name="houtai2" unicode="&#58915;" d="M1047.326501 896 116.366581 896c-64.006392 0-116.366581-52.367007-116.366581-116.366581l0-640.029831c0-64.006392 51.344214-126.642242 114.116436-139.195323l254.375464-50.873729c0 0-218.939092-77.575448-77.568629-77.575448l581.846541 0c141.390919 0-77.568629 77.575448-77.568629 77.575448l254.395919 50.873729c62.751766 12.553081 114.09598 75.18893 114.09598 139.195323L1163.693082 779.633419C1163.693082 843.632993 1111.326075 896 1047.326501 896zM1047.326501 145.419871 116.366581 145.419871 116.366581 791.265986l930.953102 0L1047.319683 145.419871z"  horiz-adv-x="1164" />
      
      <glyph glyph-name="houtai10" unicode="&#58924;" d="M870.39418 793.622669 656.406565 793.622669c-21.51088 59.380077-77.833729 102.377331-144.406565 102.377331-66.536075 0-122.877304-42.997254-144.375931-102.377331l-214.005995 0c-56.304469 0-102.395711-46.072862-102.395711-102.377331l0-716.794486c0-56.341229 46.091243-102.450852 102.395711-102.450852l716.769979 0c56.322849 0 102.414091 46.109623 102.414091 102.450852L972.802144 691.251464C972.814398 747.555933 926.717029 793.622669 870.39418 793.622669zM512 793.622669c28.152234 0 51.225426-23.054811 51.225426-51.225426 0-28.133854-23.073191-51.151905-51.225426-51.151905-28.115474 0-51.188666 23.018051-51.188666 51.151905C460.811334 770.567858 483.884526 793.622669 512 793.622669zM614.395711 76.83431 256.038292 76.83431l0 102.377331 358.357419 0L614.395711 76.83431zM768.016848 281.625732 256.038292 281.625732 256.038292 384.039824l511.984683 0L768.022975 281.625732zM768.016848 486.417155 256.038292 486.417155l0 102.377331 511.984683 0L768.022975 486.417155z"  horiz-adv-x="1024" />
      
      <glyph glyph-name="houtai11" unicode="&#58926;" d="M722.789571 414.08327l421.614777 0 0-90.34246L722.789571 323.740809 722.789571 414.08327zM722.789571 564.713429l421.614777 0 0-90.378095L722.789571 474.335333 722.789571 564.713429zM722.789571 263.531508l421.614777 0 0-90.378095L722.789571 173.153412 722.789571 263.531508zM1204.677793 895.992873 120.475619 895.992873c-66.245911 0-120.468492-54.279597-120.468492-120.468492l0-783.055889c0-66.267292 54.222581-120.468492 120.468492-120.468492l1084.202174 0c66.210276 0 120.447111 54.2012 120.447111 120.468492L1325.124904 775.524381C1325.124904 841.713276 1270.880942 895.992873 1204.677793 895.992873zM1204.677793-7.531508 662.573143-7.531508 662.573143 775.524381l542.104651 0L1204.677793-7.531508z"  horiz-adv-x="1326" />
      
      <glyph glyph-name="houtai12" unicode="&#58927;" d="M1023.973608 895.986804 128.009072 895.986804c-71.047971 0-128.009072-57.6473-128.009072-128.009072l0-767.962061c0-70.440949 56.961101-128.009072 128.009072-128.009072l255.971958 0 0 128.009072L128.009072 0.01567 128.009072 639.968659l895.971133 0 0-639.952989L767.962061 0.01567l0-128.009072 256.011547 0c70.355174 0 127.989278 57.568123 127.989278 128.009072L1151.962886 767.977732C1151.962886 838.339504 1094.968794 895.986804 1023.973608 895.986804zM575.99134 511.959587 319.979793 255.987629l192.010309 0 0-383.981031 127.969484 0L639.959587 255.987629l192.010309 0L575.99134 511.959587z"  horiz-adv-x="1152" />
      
      <glyph glyph-name="golf" unicode="&#59640;" d="M888.104 22.568c0-45-168.08-78.504-378.68-78.504-210.608 0-384 33.504-384 78.504 0 45.008 170.728 81.504 381.336 81.504 210.6 0 381.344-36.496 381.344-81.504zM655.328 56.072c-168.76 0-300.952 69.192-300.952 157.52 0 165.944 135.008 300.952 300.952 300.952s300.952-135.008 300.952-300.952c0-88.328-132.192-157.52-300.952-157.52zM655.328 498.544c157.376 0 284.952-127.576 284.952-284.952 0-78.168-125.056-141.52-284.952-141.52-159.896 0-284.952 63.36-284.952 141.52 0 157.376 127.576 284.952 284.952 284.952m0 32c-174.768 0-316.952-142.184-316.952-316.952 0-98.92 136.256-173.52 316.952-173.52s316.952 74.6 316.952 173.52c0 174.768-142.184 316.952-316.952 316.952zM384.464 173.592a24 24 0 0 0-24 24c0 170.36 138.592 308.952 308.952 308.952a24 24 0 1 0 0-48c-143.888 0-260.952-117.064-260.952-260.952a24 24 0 0 0-24-24zM317.92-31.928c-120.472 0-248.496 37.616-248.496 107.336 0 138.216 112.448 250.664 250.664 250.664s250.672-112.448 250.672-250.664c0-69.72-130.272-107.336-252.84-107.336zM320.088 310.072c129.6 0 234.672-105.064 234.672-234.664 0-50.448-108.432-91.336-236.84-91.336s-232.496 40.888-232.496 91.336c0 129.6 105.056 234.664 234.664 234.664m0 32c-147.04 0-266.664-119.624-266.664-266.664 0-80.968 133.064-123.336 264.496-123.336 133.592 0 268.84 42.368 268.84 123.336 0 147.04-119.632 266.664-266.672 266.664zM81.744 11.952a24 24 0 0 0-24 24c0 166.136 148.248 317.456 311.04 317.456a24 24 0 1 0 0-48c-135.2 0-263.04-130.944-263.04-269.456a24 24 0 0 0-24-24zM655.328 498.544c157.376 0 284.952-127.576 284.952-284.952 0-78.168-125.056-141.52-284.952-141.52-35.64 0-69.528 3.168-100.712 8.92 0.04-1.856 0.144-3.712 0.144-5.584 0-50.448-108.432-91.336-236.84-91.336s-232.496 40.888-232.496 91.336c0 129.6 105.064 234.664 234.664 234.664 22.216 0 43.688-3.16 64.056-8.92 36.944 114.52 144.36 197.392 271.184 197.392m0 48c-130.48 0-246.64-75.032-301.04-190.56a281.032 281.032 0 0 1-34.2 2.088c-155.856 0-282.664-126.808-282.664-282.664 0-95.736 145.408-139.336 280.496-139.336 111.816 0 230.576 28.968 270.688 91.512 21.784-2.336 44.096-3.512 66.72-3.512 84.36 0 163.872 16.512 223.888 46.512 70.328 35.144 109.064 85.928 109.064 143.008 0 183.592-149.36 332.952-332.952 332.952zM248.856 190.616a60.568 38.544 0 1 1 121.136 0 60.568 38.544 0 1 1-121.136 0ZM309.424 136.072c-42.936 0-76.568 23.96-76.568 54.544 0 30.584 33.632 54.544 76.568 54.544s76.568-23.96 76.568-54.544c0-30.584-33.632-54.544-76.568-54.544z m0 77.096c-25.104 0-44.568-12.12-44.568-22.544 0-10.432 19.472-22.544 44.568-22.544 25.104 0 44.568 12.12 44.568 22.544 0 10.424-19.472 22.544-44.568 22.544zM309.424 181.168a24 24 0 0 0-24 24V674.976a24 24 0 1 0 48 0v-469.816a23.992 23.992 0 0 0-24-23.992zM493.424 594.976l-184-82.904V682.976l184-88zM309.424 488.072a24 24 0 0 0-24 24V682.976a24 24 0 0 0 34.352 21.648l184-88a23.992 23.992 0 0 0-0.496-43.528l-184-82.904a24.048 24.048 0 0 0-9.856-2.12z m24 156.824v-95.688l103.016 46.416-103.016 49.272zM629.424 509.984h64v-125.912h-64zM693.424 368.072h-64a16 16 0 0 0-16 16V509.984a16 16 0 0 0 16 16h64a16 16 0 0 0 16-16v-125.912a16 16 0 0 0-16-16z m-48 32h32V493.984h-32v-93.912zM814.312 536.632l-0.04 0.08 0.024 0.264h-0.168L677.872 744.072 541.616 536.976h-0.192c0-0.104 0.024-0.2 0.024-0.304l-0.024-0.04h0.032c0.64-22.304 63.392-68.448 138.352-68.448 74.96 0 133.848 46.144 134.464 68.448h0.04zM679.8 452.184c-75.888 0-151.472 46.936-154.272 82.68a15.496 15.496 0 0 0-0.104 1.608l-0.008 0.504c0 4.072 1.52 7.792 4.024 10.608l135.064 205.28a16.024 16.024 0 0 0 26.736 0l135.368-205.76a15.8 15.8 0 0 0 3.592-12.008c-2.336-33.176-69.504-82.912-150.4-82.912zM558.768 533.928c8.92-15.28 59.096-49.744 121.04-49.744 64.384 0 108.96 35.2 117.168 49.752L677.872 714.96 558.768 533.928zM785.768 668.032l-0.032 0.064 0.008 0.208h-0.136L677.872 832.072 570.12 668.304h-0.16c0-0.08 0.016-0.16 0.024-0.232l-0.024-0.04h0.032c0.504-17.64 50.128-54.128 109.408-54.128 59.272 0 105.84 36.48 106.312 54.128h0.056zM679.408 597.904c-62.584 0-122.64 38.04-125.312 68.24a15.248 15.248 0 0 0-0.12 1.704l-0.008 0.456c0 3.984 1.456 7.624 3.864 10.432L664.504 840.864a16.024 16.024 0 0 0 26.736 0l106.944-162.576c2.216-2.736 3.552-6.2 3.552-9.984v-0.184c0-0.608-0.032-1.224-0.104-1.832-2.384-30.504-59.392-68.384-122.224-68.384z m-91.592 68.184c8.976-11.832 45.296-36.176 91.584-36.176 45.488 0 80.296 24.248 88.64 35.984L677.872 802.96 587.816 666.088zM837.424 320.072h-56V417.48l56-1.408zM837.424 304.072h-56a16 16 0 0 0-16 16V417.48c0 4.312 1.744 8.448 4.824 11.456a15.6 15.6 0 0 0 11.568 4.536l56-1.408a16 16 0 0 0 15.6-15.992v-96c0.008-8.84-7.16-16-15.992-16z m-40 32h24v64.4l-24 0.6v-65zM909.424 443.52l-0.032 0.064 0.016 0.2h-0.136l-105.408 160.2-105.4-160.192h-0.16c0-0.08 0.024-0.16 0.024-0.232l-0.024-0.032h0.024c0.504-17.248 49.04-52.944 107.032-52.944s103.544 35.696 104.016 52.944h0.048zM805.368 374.576c-61.488 0-120.512 37.528-122.952 67.248a14.504 14.504 0 0 0-0.096 1.44l-0.008 0.52c0 3.984 1.456 7.624 3.864 10.432l104.32 158.568a16 16 0 0 0 26.736 0l104.616-159.008c2.216-2.744 3.552-6.208 3.552-9.992l-0.016-0.632a17.12 17.12 0 0 0-0.064-1.128c-2.088-30.024-58.168-67.448-119.952-67.448z m-89.16 67.064c8.984-11.536 44.4-35.064 89.16-35.064 44.784 0 78.088 23.232 86.32 34.832L803.864 574.88 716.208 441.64zM887.336 545.176l-0.032 0.048 0.016 0.168h-0.112L803.864 672.08 720.52 545.384h-0.12l0.016-0.176-0.016-0.032h0.024c0.392-13.648 38.776-41.864 84.632-41.864s81.88 28.216 82.248 41.864h0.032zM805.056 487.304c-47.36 0-98.224 28.6-100.552 56.112a15.816 15.816 0 0 0-0.096 1.504l-0.008 0.464c0 3.904 1.4 7.488 3.728 10.264l82.376 125.216a16 16 0 0 0 26.736 0l82.624-125.592c2.168-2.728 3.464-6.16 3.464-9.888l-0.008-0.544a17.264 17.264 0 0 0-0.064-1.112c-1.872-25.152-47.712-56.424-98.2-56.424z m-66.32 56.648c8.432-8.96 34.152-24.648 66.32-24.648 31.512 0 56.192 15.576 64.096 24.432l-65.28 99.224-65.136-99.008zM677.872 832.072l107.736-163.768h0.136l-0.008-0.208 0.032-0.064h-0.048c-0.248-9.312-13.424-23.84-34.448-35.512l13.28-20.2 39.312 59.752 83.344-126.688h0.112l-0.016-0.168 0.032-0.048h-0.032c-0.192-7.2-10.392-18.448-26.656-27.48l48.624-73.904h0.136l-0.016-0.2 0.032-0.064h-0.04c-0.472-17.248-46.024-52.944-104.016-52.944-57.992 0-106.528 35.696-107.032 52.944h-0.024l0.024 0.032c0 0.08-0.024 0.16-0.024 0.232h0.16l18.592 28.264a186.184 186.184 0 0 0-37.256-3.864c-74.96 0-137.712 46.144-138.352 68.448h-0.032l0.024 0.04c0 0.104-0.024 0.2-0.024 0.304h0.192l63.288 96.184c-21.136 11.56-34.648 25.728-34.904 34.864h-0.032l0.024 0.04-0.024 0.232h0.16L677.872 832.072m231.536-388.28h0.04M677.872 864.072a32.008 32.008 0 0 1-26.736-14.416L544.632 687.776a31.744 31.744 0 0 1-6.6-21.472l0.072-0.984c1.136-16.096 11.16-29.76 23.032-40.472l-44.872-68.2a31.664 31.664 0 0 1-6.68-22.872c3.432-45.248 81.008-92.312 157.424-97.168 7.296-39.592 73.968-78.024 138.376-78.024 66.008 0 131.896 39.84 135.832 81.288a38.656 38.656 0 0 1 0.232 3.92 31.84 31.84 0 0 1-6.992 19.968l-30.816 46.832c7.928 8.464 14.448 18.984 15.52 31.232 0.168 1.512 0.208 3.04 0.16 4.56a31.856 31.856 0 0 1-6.664 18.56l-82.04 124.704a32 32 0 0 1-30.104 14.24L704.608 849.656a32 32 0 0 1-26.736 14.416z"  horiz-adv-x="1024" />
      
      <glyph glyph-name="shijian" unicode="&#58891;" d="M893.090118 734.414514H715.041579V805.437343c0 15.423809-12.491401 27.929544-27.929544 27.929544-15.437119 0-27.929544-12.505735-27.929543-27.929544v-71.022829H390.473003V805.437343c0 15.423809-12.491401 27.929544-27.929544 27.929544s-27.929544-12.505735-27.929544-27.929544v-71.022829H126.400691c-34.883773 0-63.277137-28.37903-63.277137-63.277137v-647.36276c0-34.898107 28.393364-63.277137 63.277137-63.277137h766.689427c34.883773 0 63.277137 28.37903 63.277137 63.277137V671.137377c0 34.898107-28.39234 63.277137-63.277137 63.277137z m7.419073-710.639897a7.427264 7.427264 0 0 0-7.419073-7.419073H126.400691a7.427264 7.427264 0 0 0-7.419073 7.419073V671.137377a7.427264 7.427264 0 0 0 7.419073 7.419073h208.214248v-64.695218c0-15.423809 12.491401-27.929544 27.929544-27.929544s27.929544 12.505735 27.929544 27.929544v64.695218h268.709488v-64.695218c0-15.423809 12.491401-27.929544 27.929544-27.929544 15.437119 0 27.929544 12.505735 27.929544 27.929544v64.695218h178.048539a7.427264 7.427264 0 0 0 7.419073-7.419073v-647.36276zM288.497096 417.276273m-51.822932 0a51.822932 51.822932 0 1 1 103.645864 0 51.822932 51.822932 0 1 1-103.645864 0ZM517.278129 417.276273m-51.822932 0a51.822932 51.822932 0 1 1 103.645864 0 51.822932 51.822932 0 1 1-103.645864 0ZM746.060185 417.276273m-51.822932 0a51.822932 51.822932 0 1 1 103.645864 0 51.822932 51.822932 0 1 1-103.645864 0ZM288.497096 215.002608m-51.822932 0a51.822932 51.822932 0 1 1 103.645864 0 51.822932 51.822932 0 1 1-103.645864 0ZM517.278129 215.002608m-51.823956 0a51.823956 51.823956 0 1 1 103.647912 0 51.823956 51.823956 0 1 1-103.647912 0ZM746.060185 215.002608m-51.823955 0a51.823956 51.823956 0 1 1 103.647911 0 51.823956 51.823956 0 1 1-103.647911 0Z"  horiz-adv-x="1024" />
      
      <glyph glyph-name="shoucangxuanzhong" unicode="&#58928;" d="M902.211 485.642a31.766 31.766 0 0 1-25.644 21.62L644.34 541.006 540.485 751.439a31.765 31.765 0 0 1-56.971 0L379.659 541.005l-232.227-33.744a31.768 31.768 0 0 1-17.606-54.183l168.042-163.8-39.669-231.288a31.765 31.765 0 0 1 46.091-33.487L512 133.702l207.71-109.199c6.915-3.65 22.854-4.496 33.454 2.418 10.086 6.579 14.681 19.151 12.637 31.069l-39.669 231.288 168.041 163.8a31.765 31.765 0 0 1 8.038 32.564z"  horiz-adv-x="1024" />
      
      <glyph glyph-name="good1" unicode="&#59026;" d="M99.056 534.66h102.097c17.6 0 32-14.4 32-32v-535.909c0-17.6-14.4-32-32-32h-102.097c-17.6 0-32 14.4-32 32v535.909c0 17.6 14.4 32 32 32zM889.424 546.867h-220.33l37.371 124.572c20.762 145.334-97.314 193.353-124.572 166.098-20.762-20.764-38.447-43.827-41.524-62.288-10.745-64.465-49.301-151.084-89.624-228.382h-51.811c-36.403 0-66.186-29.785-66.186-66.186v-490.489c0-36.404 29.784-66.186 66.186-66.186h490.49c36.403 0 66.186 29.783 66.186 66.186v490.488c0 36.402-29.783 66.187-66.186 66.187z"  horiz-adv-x="1024" />
      
      <glyph glyph-name="zuixin" unicode="&#58892;" d="M10.432-128.064L6.4 896.128h935.872v-1023.936l-468.544 245.696-463.296-245.952z m462.912 365.76l362.944-190.208V790.144H112.832l2.88-742.336 357.632 189.888zM199.104 591.296h46.528l47.296-90.944 18.624-42.176h1.28c-2.56 20.224-6.144 47.552-6.144 70.272v62.848h43.392v-190.08h-46.464l-47.04 91.712-18.624 41.728h-1.28c2.048-21.248 5.888-47.296 5.888-70.336v-63.104h-43.456v190.08zM394.176 591.296h120.64v-37.76h-74.88v-35.264h63.616v-38.336h-63.616v-40.384h77.696v-38.336H394.176v190.08zM536.64 591.296h46.72l12.032-86.592 7.68-60.288h1.024c3.648 20.16 7.424 40.64 11.264 60.288l19.392 86.592h38.4l19.968-86.592c3.84-19.392 7.104-39.872 10.944-60.288h1.344c2.304 20.416 4.8 40.64 7.104 60.288l12.288 86.592h43.392l-32.96-190.08h-57.472l-17.28 82.752a524.992 524.992 0 0 0-7.36 44.16h-1.28c-2.304-14.272-4.608-29.568-7.424-44.16L627.84 401.216h-56.448l-34.752 190.08z"  horiz-adv-x="1024" />
      
      <glyph glyph-name="zhangdan" unicode="&#59550;" d="M800 704H640c0 70.4-57.6 128-128 128s-128-56.8-128-128H224c-17.6 0-32-14.4-32-32v-704c0-17.6 14.4-32 32-32h576c17.6 0 32 14.4 32 32V672c0 17.6-14.4 32-32 32z m-288 32c17.6 0 32-14.4 32-32s-14.4-32-32-32-32 14.4-32 32 14.4 32 32 32z m160-416H544v-64h128v-64H544v-128h-64V192H352v64h128v64H352v64h82.4L352 466.4l45.6 45.6L512 397.6 626.4 512l45.6-45.6L589.6 384H672v-64z"  horiz-adv-x="1024" />
      
      <glyph glyph-name="xihuan" unicode="&#59587;" d="M512 0l-60.8 55.2C236 250.4 93.6 380 93.6 537.6 93.6 666.4 194.4 768 324 768c72.8 0 142.4-33.6 188-87.2C557.6 733.6 627.2 768 700 768c128.8 0 230.4-100.8 230.4-230.4 0-157.6-142.4-287.2-357.6-482.4L512 0z"  horiz-adv-x="1024" />
      
      <glyph glyph-name="pinglunxiao" unicode="&#59577;" d="M481.578667-72.832l-157.909334 158.293333H85.418667A85.290667 85.290667 0 0 0 0 170.88L0.426667 767.957333C0.426667 815.232 38.4 853.333333 85.845333 853.333333h852.778667c47.189333 0 85.418667-38.101333 85.376-85.418666l-0.426667-597.12c0-47.146667-38.229333-85.333333-85.376-85.333334h-237.781333l-158.549333-158.293333a42.624 42.624 0 0 0-60.288 0z m456.704 243.712L938.666667 767.957333s-852.906667 0.128-852.906667-0.042666c0 0-0.384-597.077333-0.298667-597.077334H341.333333c11.306667 0 22.186667-4.48 30.165334-12.501333l140.330666-140.629333 140.8 140.672a42.624 42.624 0 0 0 30.165334 12.458666h255.488zM277.333333 384a64 64 0 1 0 0 128 64 64 0 0 0 0-128z m234.666667 0a64 64 0 1 0 0 128 64 64 0 0 0 0-128z m234.666667 0a64 64 0 1 0 0 128 64 64 0 0 0 0-128z"  horiz-adv-x="1024" />
      
      <glyph glyph-name="zuixin1" unicode="&#58918;" d="M4.582-126.755L0.169 895.543h1023.862v-1022.039L511.435 118.742 4.582-126.755z m506.432 365.084L908.08 48.476V789.753H116.607l3.151-740.96 391.256 189.536z m0 0M210.992 591.272h50.903l51.742-90.774 20.373-42.099h1.4c-2.799 20.188-6.721 47.466-6.721 70.144v62.73h47.474v-189.725h-50.834l-51.463 91.544-20.375 41.651h-1.399c2.237-21.211 6.442-47.212 6.442-70.207v-62.988h-47.543V591.272z m213.414 0h131.981v-37.689h-81.923v-35.198h69.6v-38.264h-69.6v-40.31h85v-38.264H424.406V591.272z m155.854 0h51.111l13.168-86.431 8.398-60.177h1.121c3.99 20.124 8.126 40.565 12.324 60.177l21.213 86.431h42.013l21.843-86.431c4.204-19.354 7.773-39.795 11.977-60.177h1.469c2.522 20.382 5.251 40.565 7.773 60.177l13.44 86.431h47.474l-36.059-189.725h-62.873l-18.905 82.6a482.113 482.113 0 0 0-8.056 44.078h-1.399c-2.522-14.246-5.043-29.515-8.12-44.078l-18.136-82.6h-61.757L580.26 591.272z m0 0"  horiz-adv-x="1024" />
      
      <glyph glyph-name="jinggao1" unicode="&#58899;" d="M549.28 316.416c-2.528-27.584-20.064-40.48-37.376-40.48-12.864 0 0 0 0 0-16.448 3.104-29.216 10.112-34.816 38.016l-22.624 260.8c0 26.208 31.872 49.408 58.912 49.408s56.16-24.256 56.16-50.432L549.28 316.416zM512 241.824c-27.04 0-48.992-21.92-48.992-48.992s21.92-49.024 48.992-49.024 48.992 21.952 48.992 49.024c0 27.04-21.92 48.992-48.992 48.992zM899.808 384c0-214.176-173.6-387.776-387.84-387.776-214.144 0-387.776 173.6-387.776 387.776s173.632 387.808 387.776 387.808c214.208 0 387.84-173.632 387.84-387.808zM828 384c0 174.528-141.472 315.968-316 315.968S196.032 558.528 196.032 384c0-174.496 141.44-315.968 315.968-315.968S828 209.504 828 384z"  horiz-adv-x="1024" />
      
      <glyph glyph-name="gengduo1" unicode="&#59304;" d="M476.16 684.16h128v-128h-128zM476.16 448h128v-128h-128zM476.16 211.84h128v-128h-128z"  horiz-adv-x="1024" />
      
      <glyph glyph-name="gold_" unicode="&#58941;" d="M512.8 385.6m-408.7 0a408.7 408.7 0 1 1 817.4 0 408.7 408.7 0 1 1-817.4 0ZM703.1 512.6s-45.7 13.4-95.5 13.1c-27.8-0.2-51.2-4-66.4-7.4v64.1c0 21.5-24.8 32.3-41.7 39 0 0-45.7 13.4-95.5 13.1-49.8-0.3-85.4-12.5-85.4-12.5-18.2-7.3-41.7-17.4-41.7-39v-365.9c0-21.5 13.7-28.9 41.7-39 0 0 48.2-14.6 91.2-14.6 26.6 0 56.9 5.6 74.2 9.6 5.7-10.4 18.3-16.2 38.2-23.3 0 0 48.2-13.4 91.2-13.4 48.9 0 89.7 12.8 89.7 12.8 29.6 12.4 41.3 18.8 41.7 38.9V473.7c0 21.5-24.8 32.2-41.7 38.9zM408 608.2c58.8 0 106.4-15.9 106.4-35.6 0-19.7-47.6-35.6-106.4-35.6s-106.4 15.9-106.4 35.6c0 19.7 47.6 35.6 106.4 35.6z m72.5-133.9v-270.7 0.1c-19.8-5.4-46-10.8-72.5-10.6-58.7 0.3-105.4 21.9-105.4 21.9v58.4s45.7-22.2 104.4-21.9c27.4 0.1 53.8 5.4 73.5 10.8v28.2c-19.8-5.4-46-10.8-72.5-10.6-58.7 0.3-105.4 21.9-105.4 21.9v58.4S348.3 338 407 338.3c27.4 0.1 53.8 5.4 73.5 10.8v29.1c-19.8-5.4-46-10.8-72.5-10.6-58.7 0.3-105.4 21.9-105.4 21.9v58.4S348.3 425.7 407 426c27.4 0.1 53.8 5.4 73.5 10.8V463c-19.8-5.4-46-10.8-72.5-10.6-58.7 0.3-105.4 21.9-105.4 21.9v58.4s45.7-22.2 104.4-21.9c55.7 0.3 107.4 21.9 107.4 21.9V510c-16.5-7.1-33.9-17.2-33.9-35.7zM718 193s-52.7-22.2-106.4-21.9c-58.7 0.3-105.4 21.9-105.4 21.9v58.4s45.7-22.2 104.4-21.9c55.7 0.3 107.4 21.9 107.4 21.9V193z m0 87.7s-52.7-22.2-106.4-21.9c-58.7 0.3-105.4 21.9-105.4 21.9v58.4s45.7-22.2 104.4-21.9c55.7 0.3 107.4 21.9 107.4 21.9v-58.4z m0 84.9s-52.7-22.2-106.4-21.9c-58.7 0.3-105.4 21.9-105.4 21.9V424s45.7-22.2 104.4-21.9C666.3 402.4 718 424 718 424v-58.4z m-106.4 62.7c-58.8 0-106.4 15.9-106.4 35.6 0 19.7 47.6 35.6 106.4 35.6S718 483.6 718 463.9c0-19.6-47.7-35.6-106.4-35.6z"  horiz-adv-x="1024" />
      
      <glyph glyph-name="dian" unicode="&#60446;" d="M512 272a112 112 0 1 1 0 224 112 112 0 0 1 0-224z"  horiz-adv-x="1024" />
      
      <glyph glyph-name="dayinji" unicode="&#60094;" d="M341.333333 554.666667h341.333334V597.333333H341.333333v-42.666666zM256 554.666667V682.666667h512v-128h85.333333v-384h-85.333333v-85.333334H256v85.333334H170.666667V554.666667h85.333333z m85.333333-85.333334H256v-170.666666h512v170.666666H341.333333z m341.333334-298.666666v42.666666H341.333333v-42.666666h341.333334z m-384 256h85.333333v-85.333334H298.666667v85.333334z"  horiz-adv-x="1024" />
      
      <glyph glyph-name="daochu" unicode="&#60095;" d="M712.533333 524.8l-128-128-59.733333 59.733333 128 128L597.333333 640l-42.666666 42.666667h256v-256l-42.666667 42.666666-55.466667 55.466667zM657.066667 640H768v-110.933333V640h-110.933333zM298.666667 597.333333v-426.666666h426.666666v256l85.333334-85.333334v-256H213.333333V682.666667h256l85.333334-85.333334H298.666667z"  horiz-adv-x="1024" />
      
      <glyph glyph-name="shanchu1" unicode="&#60155;" d="M256 597.333333h512v-554.666666H256V597.333333z m85.333333-85.333333v-384h341.333334V512H341.333333z m42.666667-85.333333h85.333333v-213.333334H384v213.333334z m170.666667 0h85.333333v-213.333334h-85.333333v213.333334zM213.333333 597.333333h597.333334v-85.333333H213.333333V597.333333z m170.666667 128h256v-85.333333H384V725.333333z"  horiz-adv-x="1024" />
      
      <glyph glyph-name="shipin" unicode="&#60156;" d="M768 247.466667V128H128V640h640v-119.466667L896 597.333333v-426.666666l-128 76.8z m0 93.866666l42.666667-25.6v136.533334l-42.666667-25.6v-85.333334zM213.333333 554.666667v-341.333334h469.333334V554.666667H213.333333z"  horiz-adv-x="1024" />
      
      <glyph glyph-name="tishi" unicode="&#60158;" d="M512 42.666667c-187.733333 0-341.333333 153.6-341.333333 341.333333s153.6 341.333333 341.333333 341.333333 341.333333-153.6 341.333333-341.333333-153.6-341.333333-341.333333-341.333333z m0 85.333333c140.8 0 256 115.2 256 256s-115.2 256-256 256-256-115.2-256-256 115.2-256 256-256z m42.666667 170.666667v-85.333334h-85.333334v85.333334h85.333334z m0 256v-213.333334h-85.333334V554.666667h85.333334z"  horiz-adv-x="1024" />
      
      <glyph glyph-name="sousuo" unicode="&#60159;" d="M469.333333 128c-166.4 0-298.666667 132.266667-298.666666 298.666667s132.266667 298.666667 298.666666 298.666666 298.666667-132.266667 298.666667-298.666666-132.266667-298.666667-298.666667-298.666667z m0 85.333333c119.466667 0 213.333333 93.866667 213.333334 213.333334s-93.866667 213.333333-213.333334 213.333333-213.333333-93.866667-213.333333-213.333333 93.866667-213.333333 213.333333-213.333334z m251.733334 0l119.466666-119.466666-59.733333-59.733334-119.466667 119.466667 59.733334 59.733333z"  horiz-adv-x="1024" />
      
      <glyph glyph-name="jiantou_shangyiye" unicode="&#60166;" d="M507.733333 405.333333L768 665.6 704 725.333333 384 405.333333l320-320 59.733333 59.733334-256 260.266666zM341.333333 725.333333H256v-640h85.333333V725.333333z"  horiz-adv-x="1024" />
      
      <glyph glyph-name="jiantou_xiayiye" unicode="&#60167;" d="M516.266667 405.333333L256 665.6 315.733333 725.333333l320-320L315.733333 85.333333 256 145.066667l260.266667 260.266666zM678.4 725.333333h85.333333v-640h-85.333333V725.333333z"  horiz-adv-x="1024" />
      
      <glyph glyph-name="jinbi_o" unicode="&#60321;" d="M554.666667 298.666667h85.333333v-42.666667h-85.333333v-42.666667h-42.666667v42.666667h-85.333333v42.666667h85.333333v42.666666h-85.333333v42.666667h89.6L418.133333 482.133333l29.866667 29.866667 85.333333-85.333333 85.333334 85.333333 29.866666-29.866667-98.133333-98.133333H640v-42.666667h-85.333333v-42.666666z m-8.533334 85.333333z m-12.8-384C332.8 0 170.666667 162.133333 170.666667 362.666667S332.8 725.333333 533.333333 725.333333 896 563.2 896 362.666667 733.866667 0 533.333333 0z m0 42.666667c174.933333 0 320 145.066667 320 320S708.266667 682.666667 533.333333 682.666667 213.333333 537.6 213.333333 362.666667 358.4 42.666667 533.333333 42.666667z m0 42.666666C379.733333 85.333333 256 209.066667 256 362.666667S379.733333 640 533.333333 640 810.666667 516.266667 810.666667 362.666667 686.933333 85.333333 533.333333 85.333333z m0 42.666667c128 0 234.666667 106.666667 234.666667 234.666667S661.333333 597.333333 533.333333 597.333333 298.666667 490.666667 298.666667 362.666667 405.333333 128 533.333333 128z"  horiz-adv-x="1024" />
      
      <glyph glyph-name="go" unicode="&#58933;" d="M337.749333 856.931556c32.298667 0 62.648889-12.572444 85.489778-35.399112l348.529778-348.529777a121.173333 121.173333 0 0 0 35.256889-88.96 121.272889 121.272889 0 0 0-35.256889-89.045334L423.224889-53.532444a120.078222 120.078222 0 0 0-85.475556-35.399112 120.078222 120.078222 0 0 0-85.475555 35.399112c-47.132444 47.132444-47.132444 123.832889 0 170.965333L518.840889 384 252.273778 650.552889c-47.132444 47.132444-47.132444 123.832889 0 170.965333a120.078222 120.078222 0 0 0 85.475555 35.413334z m0-888.974223a63.630222 63.630222 0 0 1 45.255111 18.730667L724.807111 335.217778c12.672 12.700444 11.847111 29.639111 11.847111 47.715555v2.147556c0 18.076444 0.824889 35.000889-11.847111 47.687111L379.633778 781.312c-12.088889 12.088889-26.481778 18.730667-43.562667 18.730667-17.109333 0-32.327111-6.656-44.416-18.730667-24.96-24.96-24.533333-65.564444 0.426667-90.524444l286.890666-286.663112a28.444444 28.444444 0 0 0 0.099556-40.220444L292.451556 77.226667a64.099556 64.099556 0 0 1 0.014222-90.524445 63.616 63.616 0 0 1 45.283555-18.744889z"  horiz-adv-x="1024" />
      
      <glyph glyph-name="tuijian" unicode="&#59158;" d="M263.349677 427.074065l42.033549 42.050064 31.545806-31.545806-42.050064-42.033549zM346.40929 345.517419l-35.030709 35.03071 42.033548 42.050065 35.03071-35.047226zM217.633032 474.590968l42.050065 42.050064 31.52929-31.545806-42.050064-42.033549zM0 896v-1024L1024 896H0z m343.535484-181.677419l16.516129 16.516129 16.516129-16.516129 61.109677 61.109677-16.516129 16.516129 16.516129 16.516129 16.516129-16.516129L508.696774 846.451613l14.864516-14.864516-52.851613-52.851613 16.516129-16.516129-16.516129-16.516129-16.516129 16.516129-61.109677-61.109678 16.516129-16.516129-16.516129-16.516129-16.516129 16.516129-52.851613-52.851613-14.864516 14.864517 52.851613 52.851613-18.167742 14.864516z m-54.503226-474.012904L267.56129 218.83871l-19.819355 13.212903c8.258065 6.606452 14.864516 13.212903 19.819355 18.167742 6.606452 6.606452 6.606452 13.212903 1.651613 18.167742l-56.154838 56.154838c-8.258065-16.516129-14.864516-28.077419-19.819355-37.987096l-21.470968 13.212903c8.258065 13.212903 16.516129 28.077419 23.122581 42.941935l-54.503226 54.503226L110.658065 367.483871l-16.51613 16.516129 29.729033 29.729032L82.580645 455.019355l16.516129 16.516129 42.941936-42.941936 23.12258 23.122581 16.516129-16.516129-23.12258-23.122581 47.896774-47.896774c4.954839 13.212903 8.258065 23.122581 11.56129 31.380645l16.516129-16.516129c-3.303226-9.909677-8.258065-21.470968-11.56129-31.380645l67.716129-67.716129c13.212903-11.56129 13.212903-26.425806-1.651613-39.63871z m84.232258 77.625807l-16.516129-16.516129-137.083871 137.083871c3.303226-13.212903 4.954839-28.077419 6.606452-42.941936l-23.122581 11.561291c-6.606452 42.941935-19.819355 84.232258-42.941935 123.870967l19.819354 13.212904c8.258065-14.864516 16.516129-31.380645 23.122581-49.548387l42.941936 42.941935c-16.516129 8.258065-33.032258 16.516129-49.548388 23.122581l11.561291 19.819354c19.819355-8.258065 36.335484-16.516129 51.2-24.774193l-3.303226-8.258065 44.593548 44.593549 16.516129-16.516129-42.941935-42.941936 31.380645-31.380645 36.335484 36.335484 16.516129-16.516129-36.335484-36.335484 31.380645-31.380645 36.335484 36.335484 14.864516-14.864516-36.335484-36.335484 34.683871-34.683871 42.941936 42.941935 16.516129-16.516129-100.748387-100.748387 11.56129-11.56129z m168.464516 166.812903l-82.580645 82.580645c-1.651613-18.167742-3.303226-36.335484-6.606452-57.806451l-24.774193 3.303225c9.909677 46.245161 9.909677 89.187097 1.651613 127.174194L371.612903 582.193548l-13.212903 16.516129 66.064516 66.064517c-3.303226 9.909677-6.606452 18.167742-9.909677 24.774193l19.819355 13.212903 4.954838-9.909677 4.954839-9.909678L556.593548 796.903226l14.864517-14.864516-122.219355-122.219355c4.954839-19.819355 8.258065-39.63871 9.909677-59.458065l99.096774-99.096774-16.516129-16.516129z m94.141936 95.793548l-28.07742-28.077419-21.470967 11.56129c13.212903 11.56129 21.470968 19.819355 26.425806 24.774194 4.954839 4.954839 6.606452 11.56129 0 16.516129L586.322581 631.741935l-64.412904-64.412903-16.516129 16.516129 64.412904 64.412904-14.864517 14.864516c3.303226 9.909677 6.606452 26.425806 9.909678 47.896774l-77.625807-77.625807-14.864516 14.864517 100.748387 100.748387 11.561291-11.561291c-3.303226-21.470968-4.954839-42.941935-9.909678-62.76129l9.909678-9.909677 51.2 51.2 16.516129-16.516129-51.2-51.2 31.380645-31.380646c16.516129-11.56129 16.516129-23.122581 3.303226-36.335484z"  horiz-adv-x="1024" />
      
      <glyph glyph-name="zhangdan1" unicode="&#59013;" d="M864.593 510.93v-493.5h-383.2v493.5zM717.5 754.6H224.6c-36 0-65.2-29.3-65.2-65.2v-657.8c0-36 29.3-65.2 65.2-65.2h374.2l183.9 161.1V689.4c0 36-29.2 65.2-65.2 65.2z m-7.2-594.2L571.6 38.9H231.9V682.1h478.4v-521.7zM341.1 474.7h260c19.9 0 36.2 16.3 36.2 36.2 0 19.9-16.3 36.2-36.2 36.2h-260c-19.9 0-36.2-16.3-36.2-36.2-0.1-19.9 16.2-36.2 36.2-36.2zM341.1 324.3h260c19.9 0 36.2 16.3 36.2 36.2 0 19.9-16.3 36.2-36.2 36.2h-260c-19.9 0-36.2-16.3-36.2-36.2-0.1-19.9 16.2-36.2 36.2-36.2zM341.1 173.9h260c19.9 0 36.2 16.3 36.2 36.2 0 19.9-16.3 36.2-36.2 36.2h-260c-19.9 0-36.2-16.3-36.2-36.2-0.1-19.9 16.2-36.2 36.2-36.2z"  horiz-adv-x="1024" />
      
      <glyph glyph-name="shijian1" unicode="&#58893;" d="M250 217.8h522.7v-37.3H250zM250 367.1h522.7v-37.3H250zM772.7 683.1v-112H623.4v112H399.3v-112H250v112H63.3v-746.7h896V683.1H772.7zM922-26.2H100.7v672h112V533.9h223.8V645.8H586V533.9H810V645.8h112v-672zM287.3 795.1H362v-186.7h-74.7zM735.3 683.1v112h-74.6v-186.7h74.6z"  horiz-adv-x="1024" />
      
      <glyph glyph-name="zanwu" unicode="&#58929;" d="M0 46.08m7.68 0l30.72 0q7.68 0 7.68-7.68l0 0q0-7.68-7.68-7.68l-30.72 0q-7.68 0-7.68 7.68l0 0q0 7.68 7.68 7.68ZM691.2-46.08m7.68 0l30.72 0q7.68 0 7.68-7.68l0 0q0-7.68-7.68-7.68l-30.72 0q-7.68 0-7.68 7.68l0 0q0 7.68 7.68 7.68ZM56.32 46.08m7.68 0l66.56 0q7.68 0 7.68-7.68l0 0q0-7.68-7.68-7.68l-66.56 0q-7.68 0-7.68 7.68l0 0q0 7.68 7.68 7.68ZM747.52-46.08m7.68 0l66.56 0q7.68 0 7.68-7.68l0 0q0-7.68-7.68-7.68l-66.56 0q-7.68 0-7.68 7.68l0 0q0 7.68 7.68 7.68ZM163.84 46.08m7.68 0l701.44 0q7.68 0 7.68-7.68l0 0q0-7.68-7.68-7.68l-701.44 0q-7.68 0-7.68 7.68l0 0q0 7.68 7.68 7.68ZM901.12 46.08m7.68 0l97.28 0q7.68 0 7.68-7.68l0 0q0-7.68-7.68-7.68l-97.28 0q-7.68 0-7.68 7.68l0 0q0 7.68 7.68 7.68ZM376.35584-48.37376h-163.1744c-2.6112 15.5648-16.32256 27.89376-32.64 27.89376s-30.02368-12.32384-32.63488-27.89376H53.25824A7.2192 7.2192 0 0 1 46.08-55.51104c0-3.8912 3.26144-7.13728 7.17824-7.13728h100.52096a7.2192 7.2192 0 0 1 7.17824 7.13728v1.29536c0 11.02848 8.48896 19.46112 19.584 19.46112 10.4448 0 19.57888-8.43264 19.57888-19.456 0-0.65536-0.65024-1.30048-0.65024-1.95072 0-3.8912 3.26144-7.13728 7.17824-7.13728h169.70752a7.2192 7.2192 0 0 1 7.18336 7.13728c0 3.8912-3.9168 7.7824-7.18336 7.7824zM455.64928 844.2368c11.33568 0 23.46496-0.95744 36.3008-2.88768 41.02656-6.16448 74.96704-19.92704 76.3904-20.5056l-6.784-16.59904c-1.00864 0.4096-79.36 31.85664-136.40704 19.05664 2.7392-1.90976 5.23264-3.95264 7.46496-6.13376 12.15488-11.86816 13.0048-26.45504 2.2272-38.05696-7.50592-8.07936-20.67456-14.57152-35.2256-17.36704-7.4752-1.4336-25.984-3.75296-36.608 5.632-6.4 5.64736-13.97248 18.88768 7.17824 44.07808a79.82592 79.82592 0 0 0 9.79968 9.79968c-14.86336 2.58048-32.1536 3.21536-50.35008 1.5872-41.02656-3.67104-93.60384-19.88096-118.13888-54.3488l-14.60736 10.3936c12.38016 17.39776 32.09216 32.37376 57.01632 43.32032 22.19008 9.74336 47.8208 16.14336 74.1376 18.49856 28.12928 2.51904 53.64224 0.23552 73.6512-6.20544 7.64416 3.28704 16.06144 5.74976 25.216 7.3728 8.88832 1.58208 18.48832 2.37056 28.73856 2.37056zM385.72032 778.28608c11.45344 0 28.04224 4.48512 35.98336 13.0304 2.93888 3.16416 5.02272 6.54336-1.61792 13.0304-4.30592 4.20352-10.26048 7.80288-17.4848 10.71616a64.2048 64.2048 0 0 1-18.688-15.13472c-9.51296-11.33568-10.59328-17.73568-9.04192-19.10784 1.93024-1.69984 5.9136-2.5344 10.8544-2.5344z m255.36-36.5568c3.87584 0 7.74144-0.06656 11.5968-0.2048 25.04704-0.87552 67.31776-5.39136 99.456-24.2688 15.80032 1.1776 33.8688 0.54784 54.17472-1.8944 46.34624-5.57056 87.1424-18.62144 88.85248-19.1744l-5.504-17.06496c-0.40448 0.13312-41.06752 13.12768-85.72416 18.46784a315.02336 315.02336 0 0 1-29.71648 2.21184c11.38176-12.96384 12.14464-27.648 1.83808-39.92576-18.87232-22.47168-71.53664-32.12288-92.38016-16.93184-5.76 4.1984-17.52576 16.56832-2.40128 40.63232 8.2944 13.19424 21.58592 22.59456 39.75168 28.17024-19.28704 6.8096-42.83392 10.94144-68.97664 11.86304-41.6256 1.46944-84.70528-5.39648-109.72672-17.47968l-7.79776 16.14848c25.06752 12.09856 65.90976 19.456 106.55744 19.456z m71.0656-88.32c17.4336 0 40.6784 6.69184 50.176 17.9968 2.28864 2.72896 7.05024 8.3968-3.57376 18.64704a77.66528 77.66528 0 0 1-11.01824 8.7552c-22.13888-2.44224-41.64608-9.45664-51.27168-24.77056-7.85408-12.4928-3.61472-15.58528-2.22208-16.60416 3.75808-2.7392 10.28096-4.02432 17.91488-4.02432zM256.18432 698.0608c0.80384 0 1.60256-0.01024 2.41664-0.03584l-0.49664-17.92c-44.50816 1.21856-82.61632-40.77056-82.9952-41.1904l-13.3632 11.96032c1.75616 1.95072 42.86464 47.18592 94.4384 47.18592z m4.41856-59.25376c0.98304 0 1.96608-0.02048 2.944-0.05632l-0.65536-17.92a63.8976 63.8976 0 0 1-2.2528 0.04096c-48.12288 0-67.70688-56.8064-67.90144-57.39008l-16.9984 5.69344c0.24064 0.73216 6.12352 18.048 19.53792 35.18976 17.664 22.5792 40.20224 34.44224 65.3312 34.44224z m130.26816-40.46848c11.33568 0 26.42944-0.90624 42.1376-4.46464 43.40224-9.82016 70.1696-34.97984 77.40416-72.76544l1.3312-6.94784a1.24416 1.24416 0 0 0-0.88576-1.4336L231.41376 433.34656a1.24416 1.24416 0 0 0-1.2288 0.3328l-3.21536 3.31264c-0.39424 0.40448-40.68864 41.1904-95.1808 48.77824l-29.2352 4.06528c-1.26976 0.1792-1.47456 1.92512-0.2816 2.39104L370.0224 597.1456a1.2288 1.2288 0 0 0 0.30208 0.0768l0.95744 0.11776c0.6144 0.0768 8.20224 0.99328 19.584 0.99328z m98.74944-73.00096a1.24928 1.24928 0 0 1 0.85504 1.57696c-8.15104 25.46176-28.7744 42.0864-61.42464 49.46944-25.01632 5.66272-48.77824 3.84-54.32832 3.29728a1.19296 1.19296 0 0 1-0.32256-0.0768L166.0928 497.9712c-1.06496-0.41984-1.0496-1.9456 0.03072-2.32448 34.304-12.14976 59.4688-32.95744 69.2736-41.92256 0.31232-0.29184 0.75776-0.39424 1.1776-0.27648l253.03552 71.8848z m394.00448 100.17792c3.05152 1.14176 5.43232-2.77504 3.0208-4.9664l-23.2448-21.0176c-0.19456-0.1792-20.03968-18.16576-40.064-38.89152-36.10624-37.36064-40.45824-50.01216-40.9344-52.99712l-0.77824-4.89984-251.5456-107.15648 1.65888 15.22176c0.27648 2.56 7.63904 63.1808 78.17216 112.4608l0.93696 0.65536 272.77824 101.59104z m-117.59616-109.9264c3.2256 9.0624 13.04064 25.05728 44.47232 57.57952 3.072 3.1744 6.16448 6.31808 9.28256 9.43616l-200.5248-74.68544c-41.86112-29.56288-58.8288-63.26784-65.52576-82.7648l212.29568 90.43456zM780.12928 504.27392l10.83904-290.94912-244.08064-114.90816-7.63904 16.22528 233.35936 109.85984-10.39872 279.10656zM224.17408 452.8384l323.06176-36.41344 0.93696-318.27456L223.232 165.60128l0.94208 287.23712z m305.17248-52.44416l-287.30368 32.384-0.82944-252.5952 288.96256-59.9808-0.82944 280.192z m79.9232 119.73632l-1.37216-17.88416L500.90496 510.464l1.37216 17.87904 106.99264-8.20736z"  horiz-adv-x="1024" />
      
      <glyph glyph-name="zanwu1" unicode="&#58989;" d="M117.76 148.48c0-82.944 317.44-147.456 707.584-147.456S1533.952 66.56 1533.952 148.48s-317.44 147.456-707.584 147.456S117.76 231.424 117.76 148.48zM55.296-16.384c4.096 0 9.216 3.072 9.216 9.216 0 4.096-3.072 9.216-9.216 9.216H11.264c-4.096 0-9.216-3.072-9.216-9.216 0-4.096 3.072-9.216 9.216-9.216h44.032z m831.488 0c4.096 0 9.216 3.072 9.216 9.216 0 4.096-3.072 9.216-9.216 9.216H96.256c-4.096 0-9.216-3.072-9.216-9.216 0-4.096 3.072-9.216 9.216-9.216h790.528z m87.04 0c4.096 0 9.216 3.072 9.216 9.216 0 4.096-3.072 9.216-9.216 9.216h-44.032c-4.096 0-9.216-3.072-9.216-9.216 0-4.096 3.072-9.216 9.216-9.216h44.032z m709.632 0c4.096 0 9.216 3.072 9.216 9.216 0 4.096-3.072 9.216-9.216 9.216h-44.032c-4.096 0-9.216-3.072-9.216-9.216 0-4.096 3.072-9.216 9.216-9.216h44.032z m-84.992 0c4.096 0 9.216 3.072 9.216 9.216 0 4.096-3.072 9.216-9.216 9.216h-572.416c-4.096 0-9.216-3.072-9.216-9.216 0-4.096 3.072-9.216 9.216-9.216h572.416zM679.936-120.832c4.096 0 9.216 3.072 9.216 9.216 0 4.096-3.072 9.216-9.216 9.216h-44.032c-4.096 0-9.216-3.072-9.216-9.216 0-4.096 3.072-9.216 9.216-9.216h44.032z m542.72 0c4.096 0 9.216 3.072 9.216 9.216 0 4.096-3.072 9.216-9.216 9.216h-19.456c-4.096 0-9.216-3.072-9.216-9.216 0-4.096 3.072-9.216 9.216-9.216h19.456z m-62.464 0c4.096 0 9.216 3.072 9.216 9.216 0 4.096-3.072 9.216-9.216 9.216H733.184c-4.096 0-9.216-3.072-9.216-9.216 0-4.096 3.072-9.216 9.216-9.216h427.008z m409.6 950.272c-25.6 0-48.128-22.528-48.128-48.128s22.528-48.128 48.128-48.128c26.624 0 48.128 21.504 48.128 48.128s-21.504 48.128-48.128 48.128z m-1.024-74.752c-14.336 0-26.624 12.288-26.624 26.624s12.288 26.624 26.624 26.624c14.336 0 26.624-12.288 26.624-26.624 1.024-14.336-12.288-26.624-26.624-26.624z m-132.096-260.096c-19.456 0-31.744-14.336-31.744-31.744 0-16.384 14.336-31.744 31.744-31.744 16.384 0 31.744 14.336 31.744 31.744-1.024 20.48-15.36 31.744-31.744 31.744z m-3.072-40.96c-5.12 0-9.216 4.096-9.216 9.216 0 7.168 4.096 9.216 9.216 9.216 7.168 0 9.216-4.096 9.216-9.216 1.024-6.144-4.096-9.216-9.216-9.216zM239.616 894.976C202.752 894.976 174.08 865.28 174.08 829.44c0-36.864 29.696-65.536 65.536-65.536 36.864 0 65.536 29.696 65.536 65.536S276.48 894.976 239.616 894.976z m3.072-109.568c-23.552 0-44.032 19.456-44.032 44.032 0 23.552 19.456 44.032 44.032 44.032C266.24 873.472 286.72 854.016 286.72 829.44s-20.48-44.032-44.032-44.032zM587.776 756.736h-12.288c-3.072 0-7.168 3.072-7.168 7.168 0 3.072 3.072 7.168 7.168 7.168h12.288c3.072 0 7.168-3.072 7.168-7.168 1.024-4.096-1.024-7.168-7.168-7.168z m-16.384 25.6c-3.072-3.072-7.168-3.072-9.216 0-3.072 3.072-3.072 7.168 0 9.216l9.216 9.216c3.072 3.072 7.168 3.072 9.216 0 3.072-3.072 3.072-7.168 0-9.216l-9.216-9.216zM542.72 708.608c-3.072 0-7.168 3.072-7.168 7.168v14.336c0 3.072 3.072 7.168 7.168 7.168 3.072 0 7.168-3.072 7.168-7.168v-12.288c-2.048-4.096-5.12-9.216-7.168-9.216z m0 82.944c-3.072 0-7.168 3.072-7.168 7.168V811.008c0 3.072 3.072 7.168 7.168 7.168 3.072 0 7.168-3.072 7.168-7.168v-12.288c-2.048-5.12-5.12-7.168-7.168-7.168z m-29.696-65.536c-3.072-3.072-7.168-3.072-9.216 0s-3.072 7.168 0 9.216l9.216 9.216c3.072 3.072 7.168 3.072 9.216 0 3.072-3.072 3.072-7.168 0-9.216l-9.216-9.216z m0 56.32l-9.216 9.216c-3.072 3.072-3.072 7.168 0 9.216 3.072 3.072 7.168 3.072 9.216 0l9.216-9.216c3.072-3.072 3.072-7.168 0-9.216-2.048-3.072-7.168-3.072-9.216 0z m2.048-20.48c0-3.072-3.072-7.168-7.168-7.168h-12.288c-3.072 0-7.168 3.072-7.168 7.168 0 3.072 3.072 7.168 7.168 7.168h12.288c3.072 1.024 7.168-2.048 7.168-7.168z m56.32-19.456l9.216-9.216c3.072-3.072 3.072-7.168 0-9.216s-7.168-3.072-9.216 0l-9.216 9.216c-3.072 3.072-3.072 7.168 0 9.216 2.048 5.12 5.12 5.12 9.216 0zM215.04 114.688c0-63.488 273.408-113.664 610.304-113.664s610.304 51.2 610.304 113.664c0 63.488-273.408 113.664-610.304 113.664S215.04 177.152 215.04 114.688zM350.208 68.608c0-36.864 212.992-65.536 475.136-65.536s475.136 28.672 475.136 65.536c0 36.864-212.992 65.536-475.136 65.536s-475.136-28.672-475.136-65.536zM1060.864 446.464H830.464c-14.336 0-29.696 9.216-36.864 22.528-9.216 16.384-26.624 26.624-51.2 26.624H585.728c-31.744 0-56.32-22.528-56.32-51.2v-287.744c0-19.456 16.384-33.792 38.912-33.792h494.592c22.528 0 38.912 14.336 38.912 33.792v256c-3.072 19.456-21.504 33.792-40.96 33.792zM1062.912 458.752H832.512c-9.216 0-19.456 7.168-26.624 16.384-11.264 21.504-33.792 33.792-58.368 33.792H588.8c-36.864 0-67.584-28.672-67.584-63.488v-286.72c0-26.624 21.504-46.08 48.128-46.08h491.52c28.672 0 48.128 21.504 51.2 49.152V412.672c-1.024 26.624-22.528 46.08-49.152 46.08z m26.624-301.056c0-14.336-12.288-23.552-26.624-23.552H568.32c-14.336 0-26.624 9.216-26.624 23.552V446.464c0 19.456 19.456 38.912 44.032 38.912H747.52c16.384 0 31.744-8.192 38.912-22.528 9.216-19.456 26.624-29.696 46.08-29.696h230.4c14.336 0 26.624-9.216 26.624-23.552v-251.904zM830.464 243.712h-4.096c-109.568 0-193.536 87.04-193.536 193.536v53.248c0 109.568 87.04 193.536 193.536 193.536h4.096c106.496 0 193.536-87.04 193.536-193.536v-48.128c0-109.568-87.04-198.656-193.536-198.656zM973.824 233.472H679.936c-33.792 0-60.416 26.624-60.416 60.416V633.856c0 33.792 26.624 60.416 60.416 60.416H972.8c33.792 0 60.416-26.624 60.416-60.416v-338.944c3.072-34.816-25.6-61.44-59.392-61.44zM679.936 674.816c-22.528 0-38.912-19.456-38.912-38.912v-338.944c0-22.528 19.456-38.912 38.912-38.912h294.912c22.528 0 38.912 19.456 38.912 38.912V635.904c0 22.528-19.456 38.912-38.912 38.912H679.936zM947.2 573.44H706.56c-7.168 0-9.216 4.096-9.216 9.216 0 7.168 4.096 9.216 9.216 9.216h239.616c7.168 0 9.216-4.096 9.216-9.216 3.072-5.12-1.024-9.216-8.192-9.216z m-88.064-63.488H706.56c-7.168 0-9.216 4.096-9.216 9.216 0 7.168 4.096 9.216 9.216 9.216h152.576c7.168 0 9.216-4.096 9.216-9.216 3.072-5.12-2.048-9.216-9.216-9.216z m44.032 0c-3.072 0-7.168 3.072-7.168 3.072-3.072 3.072-3.072 4.096-3.072 7.168s3.072 7.168 3.072 7.168c4.096 4.096 12.288 4.096 14.336 0 3.072-3.072 3.072-4.096 3.072-7.168s-3.072-7.168-3.072-7.168-5.12-3.072-7.168-3.072zM1084.416 396.288H844.8c-16.384 0-31.744 9.216-38.912 22.528-9.216 16.384-29.696 26.624-51.2 26.624H587.776c-31.744 0-58.368-22.528-58.368-51.2v-287.744c0-19.456 19.456-33.792 38.912-33.792h516.096c22.528 0 38.912 14.336 38.912 33.792V360.448c2.048 18.432-16.384 35.84-38.912 35.84zM1084.416 400.384H844.8c-16.384 0-31.744 7.168-38.912 19.456-9.216 14.336-29.696 23.552-51.2 23.552H587.776c-31.744 0-58.368-19.456-58.368-44.032v-246.784c0-16.384 19.456-31.744 38.912-31.744h516.096c22.528 0 38.912 14.336 38.912 31.744V369.664c2.048 16.384-16.384 30.72-38.912 30.72zM1084.416 61.44H568.32c-26.624 0-51.2 19.456-51.2 46.08V396.288c0 33.792 31.744 63.488 67.584 63.488h166.912c26.624 0 51.2-12.288 60.416-33.792 7.168-9.216 16.384-16.384 29.696-16.384h239.616c26.624 0 51.2-19.456 51.2-46.08l3.072-140.288c0-7.168-4.096-9.216-9.216-9.216-7.168 0-9.216 4.096-9.216 9.216l-3.072 140.288c0 14.336-14.336 23.552-29.696 23.552H846.848c-19.456 0-38.912 9.216-48.128 29.696-7.168 14.336-23.552 22.528-44.032 22.528H585.728c-26.624 0-46.08-19.456-46.08-38.912v-287.744c0-12.288 14.336-23.552 29.696-23.552H1085.44c14.336 0 29.696 9.216 29.696 23.552v29.696c0 7.168 4.096 9.216 9.216 9.216 7.168 0 9.216-4.096 9.216-9.216v-29.696c2.048-29.696-19.456-51.2-49.152-51.2zM1125.376 168.96c-3.072 0-7.168 3.072-7.168 3.072-3.072 3.072-3.072 4.096-3.072 7.168s3.072 7.168 3.072 7.168c4.096 4.096 12.288 4.096 14.336 0 3.072-3.072 3.072-4.096 3.072-7.168s-3.072-7.168-3.072-7.168c-2.048-2.048-4.096-3.072-7.168-3.072zM1494.016-120.832c4.096 0 9.216 3.072 9.216 9.216 0 4.096-3.072 9.216-9.216 9.216h-232.448c-4.096 0-9.216-3.072-9.216-9.216 0-4.096 3.072-9.216 9.216-9.216h232.448zM706.56 261.12h17.408v10.24h10.24v-10.24h22.528v-8.192h-22.528v-10.24c8.192 0 15.36 1.024 22.528 1.024 0-3.072-1.024-6.144-1.024-9.216-7.168 0-14.336-1.024-21.504-1.024v-11.264h-10.24v10.24c-11.264-1.024-22.528-1.024-33.792-2.048l-1.024 10.24c12.288 0 23.552 1.024 34.816 1.024v11.264h-28.672V261.12l9.216 15.36h-14.336v8.192h19.456c2.048 4.096 4.096 9.216 6.144 14.336l9.216-3.072c-2.048-4.096-4.096-7.168-5.12-11.264H757.76v-8.192h-41.984L706.56 261.12z m4.096-41.984h96.256v-59.392h-10.24v6.144h-75.776v-6.144h-10.24v59.392z m86.016-8.192h-75.776v-13.312h75.776v13.312z m-75.776-35.84h75.776v13.312h-75.776v-13.312z m44.032 112.64c18.432 0 37.888 2.048 56.32 5.12l3.072-9.216c-17.408-2.048-33.792-3.072-49.152-4.096V261.12h52.224v-8.192h-20.48v-29.696h-9.216v29.696h-22.528c-2.048-12.288-6.144-23.552-13.312-31.744-2.048 2.048-5.12 4.096-8.192 7.168 8.192 8.192 12.288 21.504 12.288 36.864l-1.024 22.528z m69.632-44.032h55.296c2.048 9.216 3.072 20.48 3.072 32.768h-48.128v11.264h113.664v-11.264h-54.272c-1.024-12.288-2.048-22.528-4.096-32.768h68.608v-11.264h-70.656c-7.168-31.744-26.624-56.32-58.368-73.728-2.048 3.072-4.096 6.144-7.168 10.24 27.648 14.336 46.08 34.816 54.272 63.488h-52.224v11.264z m71.68-21.504h11.264v-36.864c0-7.168 3.072-11.264 10.24-11.264h19.456c6.144 0 10.24 3.072 11.264 8.192 1.024 5.12 1.024 12.288 2.048 20.48 3.072-1.024 7.168-3.072 12.288-4.096-1.024-9.216-2.048-16.384-3.072-20.48-1.024-9.216-8.192-14.336-19.456-14.336h-24.576c-12.288 0-18.432 6.144-18.432 19.456l-1.024 38.912z"  horiz-adv-x="1699" />
      
      <glyph glyph-name="24gl-phonePause" unicode="&#59727;" d="M705.74 291.126667a53.4 53.4 0 0 1-75.426667 0l-37.713333-37.713334c-21.333333-21.333333-90.413333-0.1-150.846667 60.34S360.046667 443.24 381.413333 464.6l0.046667 0.046667 37.666667 37.666666a53.4 53.4 0 0 1 0 75.426667l-165.94 165.933333a53.393333 53.393333 0 0 1-75.42 0l-37.713334-37.713333c-27.866667-27.866667-44.84-64.52-50.46-108.946667-5.213333-41.206667-0.406667-87.42 14.28-137.333333C133.333333 359.41333299999997 199.773333 254 290.9 162.89999999999998S487.42 5.333333000000039 587.653333-24.126666999999998c36.926667-10.86 71.813333-16.32 104.146667-16.32a264.333333 264.333333 0 0 1 33.213333 2.04c44.426667 5.62 81.08 22.593333 108.946667 50.46l37.713333 37.713334a53.393333 53.393333 0 0 1 0 75.42z m135.76-211.193334l-37.706667-37.713333c-42.58-42.573333-115.06-51.6-204.1-25.413333-93.506667 27.5-192.453333 90.1-278.62 176.266666s-148.766667 185.113333-176.266666 278.62c-26.186667 89.033333-17.16 161.52 25.413333 204.1l37.713333 37.706667a10.666667 10.666667 0 0 0 15.086667 0l165.933333-165.933333a10.666667 10.666667 0 0 0 0-15.086667l-37.713333-37.706667C329.113333 472.666667 324.666667 437.18 338.766667 394.926667c12.426667-37.273333 38.286667-76.813333 72.813333-111.333334s74.073333-60.386667 111.333333-72.813333c16.213333-5.406667 31.42-8.08 45.26-8.08 22.233333 0 40.946667 6.913333 54.586667 20.553333l37.706667 37.713334a10.666667 10.666667 0 0 0 15.086666 0l165.933334-165.933334a10.666667 10.666667 0 0 0 0.013333-15.1zM682.666667 533.333333V746.666667a21.333333 21.333333 0 0 0 42.666666 0v-213.333334a21.333333 21.333333 0 0 0-42.666666 0z m213.333333 213.333334v-213.333334a21.333333 21.333333 0 0 0-42.666667 0V746.666667a21.333333 21.333333 0 0 0 42.666667 0z"  horiz-adv-x="1024" />
      
      <glyph glyph-name="24gf-phonePause" unicode="&#59754;" d="M871.673333 125.18666700000006a53.393333 53.393333 0 0 0 0-75.42l-37.713333-37.713334c-27.866667-27.866667-64.52-44.84-108.946667-50.46a264.333333 264.333333 0 0 0-33.213333-2.04c-32.333333 0-67.22 5.46-104.146667 16.32C487.42 5.333333000000039 382 71.77333299999998 290.9 162.89999999999998S133.333333 359.41333299999997 103.873333 459.653333c-14.666667 49.94-19.493333 96.153333-14.28 137.333334 5.62 44.426667 22.593333 81.08 50.46 108.946666l37.713334 37.713334a53.393333 53.393333 0 0 0 75.42 0l165.94-165.933334a53.4 53.4 0 0 0 0-75.426666l-37.713334-37.686667c-21.333333-21.333333-0.1-90.413333 60.34-150.846667s129.486667-81.7 150.846667-60.34l37.713333 37.713334a53.4 53.4 0 0 0 75.426667 0zM704 512a21.333333 21.333333 0 0 1 21.333333 21.333333V746.666667a21.333333 21.333333 0 0 1-42.666666 0v-213.333334a21.333333 21.333333 0 0 1 21.333333-21.333333z m170.666667 256a21.333333 21.333333 0 0 1-21.333334-21.333333v-213.333334a21.333333 21.333333 0 0 1 42.666667 0V746.666667a21.333333 21.333333 0 0 1-21.333333 21.333333z"  horiz-adv-x="1024" />
      
      <glyph glyph-name="24gf-playCircle" unicode="&#60034;" d="M512 853.333333C252.793333 853.333333 42.666667 643.206667 42.666667 384s210.126667-469.333333 469.333333-469.333333 469.333333 210.126667 469.333333 469.333333S771.206667 853.333333 512 853.333333z m196.546667-500.493333l-266.666667-176A37.333333 37.333333 0 0 0 384 208V559.9666669999999a37.333333 37.333333 0 0 0 57.893333 31.16l266.666667-176a37.333333 37.333333 0 0 0 0-62.32z"  horiz-adv-x="1024" />
      
      <glyph glyph-name="houtaiguanli" unicode="&#58981;" d="M204.8-25.6h614.4a51.2 51.2 0 0 0 0-102.4H204.8a51.2 51.2 0 0 0 0 102.4zM51.2 896h921.6a51.2 51.2 0 0 0 51.2-51.2v-716.8a51.2 51.2 0 0 0-51.2-51.2H51.2a51.2 51.2 0 0 0-51.2 51.2V844.8a51.2 51.2 0 0 0 51.2 51.2z m409.6-591.104V230.4h102.4v74.3936c10.4448 7.2192 21.504 15.8208 32.6656 25.2928l60.928-60.928 72.448 72.448-60.928 60.928c9.472 11.1616 18.0736 22.2208 25.2928 32.6656H768V537.6h-74.3936a426.5984 426.5984 0 0 1-25.344 32.6656l60.928 60.928-72.3968 72.448-60.928-60.9792A428.288 428.288 0 0 1 563.2 667.9552V742.4H460.8v-74.4448c-10.4448-7.2192-21.504-15.8208-32.6656-25.2928l-60.928 60.928-72.448-72.3968 60.928-60.928A426.5984 426.5984 0 0 1 330.4448 537.6H256v-102.4h74.4448c7.168-10.4448 15.8208-21.504 25.2928-32.6656l-60.928-60.928 72.3968-72.448 60.928 61.0304c11.264-9.472 22.2208-18.0736 32.6656-25.2928z"  horiz-adv-x="1024" />
      
      <glyph glyph-name="tianjia" unicode="&#58961;" d="M118.153846 431.261538h787.692308v-94.523076H118.153846zM464.738462-9.846154V777.846154h94.523076v-787.692308z"  horiz-adv-x="1024" />
      
      <glyph glyph-name="zanting" unicode="&#59058;" d="M512-32C282.25-32 96 154.25 96 384S282.25 800 512 800s416-186.25 416-416-186.25-416-416-416zM384 592c-17.673 0-32-14.327-32-32v-384h96c17.673 0 32 14.327 32 32V592h-96z m192 0c-17.673 0-32-14.327-32-32v-384h96c17.673 0 32 14.327 32 32V592h-96z"  horiz-adv-x="1024" />
      
      <glyph glyph-name="shijian2" unicode="&#58904;" d="M512-96A480 480 0 1 0 992 384 480 480 0 0 0 512-96z m0 896A416 416 0 1 1 928 384 416.64 416.64 0 0 1 512 800zM512 384m-64 0a64 64 0 1 1 128 0 64 64 0 1 1-128 0ZM736 128a30.08 30.08 0 0 0-22.4 9.6l-224 224A30.08 30.08 0 0 0 480 384V640a32 32 0 0 0 64 0v-242.56l214.4-215.04a30.72 30.72 0 0 0 0-44.8 30.08 30.08 0 0 0-22.4-9.6z"  horiz-adv-x="1024" />
      
      <glyph glyph-name="zanting1" unicode="&#59392;" d="M510.9 835.3c-245.6 0-446.7-199.8-446.7-446.7C64.2 143 263.9-58 510.8-58s446.6 199.7 446.6 446.6c0.1 245.6-199.6 446.7-446.5 446.7z m-24.7-574c0-8.8-7.2-16-16-16h-94.9c-8.8 0-16 7.2-16 16V506.7c0 8.8 7.2 16 16 16h94.9c8.8 0 16-7.2 16-16v-245.4z m178.5 0c0-8.8-7.2-16-16-16h-94.9c-8.8 0-16 7.2-16 16V506.7c0 8.8 7.2 16 16 16h94.9c8.8 0 16-7.2 16-16v-245.4z"  horiz-adv-x="1024" />
      
      <glyph glyph-name="shouye" unicode="&#58909;" d="M863.68 465.152l-33.088 33.152V647.36a52.096 52.096 0 0 1-104.192 0v-44.608l-200.512 200.96a19.5456 19.5456 0 0 1-27.712 0l-337.792-338.56L36.736 341.184c-11.776-11.776-3.392-31.936 13.248-31.936h110.4v-280.832c0-30.912 25.088-56 56-56h190.144v255.36c0 58.24 47.232 105.472 105.536 105.472 29.12 0 55.488-11.84 74.56-30.912s30.912-45.44 30.912-74.56v-255.36h190.144c30.912 0 56 25.088 56 56V309.248h110.4c16.704 0 25.024 20.16 13.248 31.936l-123.648 123.968z"  horiz-adv-x="1024" />
      
      <glyph glyph-name="svip1" unicode="&#58930;" d="M649.143 493.714h-18.286c-10.112 0-18.286-8.192-18.286-18.285V292.57000000000005c0-10.093 8.174-18.285 18.286-18.285h18.286c10.112 0 18.286 8.192 18.286 18.285V475.43c0 10.093-8.174 18.285-18.286 18.285z m-109.714 0h-36.572v-128c0.567-29.147-36.571-36.571-36.571-36.571s-36.572 7.424-36.572 36.571v128h-36.571c-10.094 0-18.286-8.192-18.286-18.285v-128c0.567-1.902 64.384-73.71 73.143-73.143h36.571c10.478 0 73.143 73.527 73.143 73.143v128c0 10.093-8.173 18.285-18.285 18.285z m301.714 0h-54.857c-6.345 0-12.343-1.207-18.103-2.925-2.78 1.7-5.852 2.925-9.326 2.925h-18.286c-10.112 0-18.285-8.192-18.285-18.285V292.57000000000005c0-10.112 8.173-18.285 18.285-18.285h18.286c10.112 0 18.286 8.173 18.286 18.285v55.79c3.017-0.457 6.016-0.932 9.143-0.932h54.857c35.346 0 64 28.653 64 64v18.285c0 35.347-28.654 64-64 64z m9.143-91.428c0-10.094-8.192-18.286-18.286-18.286h-54.857v73.143H832c10.094 0 18.286-8.174 18.286-18.286v-36.571zM284.507 420.57h19.383c6.73 0 12.636 3.237 16.11 8.138 0 13.732-2.706 22.619-6.82 28.434h0.42c-10.295 21.559-32.11 36.571-57.6 36.571-3.145 0-6.126-0.621-9.143-1.097v1.097H192v-0.914c-30.976-4.48-54.857-30.866-54.857-63.086 0-34.596 27.483-62.592 61.787-63.78l-0.11-0.22h48.037c10.094 0 18.286-8.173 18.286-18.285v-18.286c0-10.112-8.192-18.286-18.286-18.286H192v18.286c0 10.112-8.667 18.286-19.365 18.286h-19.382c-6.711 0-12.636-3.237-16.11-8.138-0.055-13.897 2.834-22.747 7.204-28.434h-0.804c10.295-21.559 32.128-36.571 57.6-36.571 3.145 0 6.126 0.621 9.143 1.097v-1.097h54.857v0.932C296.119 279.67999999999995 320 306.08500000000004 320 338.28599999999994c0 34.45-27.282 62.336-61.385 63.744 0.036 0.073 0.055 0.183 0.091 0.256h-48.42c-10.094 0-18.286 8.192-18.286 18.285v18.286c0 10.094 8.192 18.286 18.286 18.286h54.857v-18.286c0-10.094 8.667-18.286 19.364-18.286z"  horiz-adv-x="1024" />
      
      <glyph glyph-name="houtaiguanli-houtaiguanli" unicode="&#58934;" d="M263.1 51.2h497.7c22.9 0 41.5-18.6 41.5-41.5s-18.6-41.5-41.5-41.5H263.1c-22.9 0-41.5 18.6-41.5 41.5s18.6 41.5 41.5 41.5zM138.7 797.8h746.6c22.9 0 41.5-18.6 41.5-41.5v-580.7c0-11-4.4-21.6-12.1-29.3-7.8-7.8-18.3-12.1-29.3-12.1H138.7c-11 0-21.6 4.4-29.3 12.1-7.8 7.8-12.1 18.3-12.1 29.3V756.3c-0.1 22.9 18.5 41.5 41.4 41.5z m331.8-478.9v-60.4h83v60.3c8.5 5.8 17.4 12.8 26.5 20.5l49.4-49.4 58.7 58.7-49.5 49.4c7.7 9 14.6 18 20.5 26.5h60.3v83h-60.3c-6.4 9.1-13.3 18-20.5 26.5l49.4 49.4-58.7 58.6-49.4-49.4c-8.5 7.3-17.3 14.1-26.5 20.5v60.3h-83V613c-8.5-5.8-17.4-12.8-26.5-20.5l-49.4 49.4-58.5-58.6 49.4-49.4c-7.2-8.5-14.1-17.3-20.5-26.5h-60.3v-83h60.3c5.8-8.5 12.8-17.4 20.5-26.5L336 348.7l58.7-58.7 49.4 49.4c9.1-7.7 18-14.6 26.4-20.5z m0 0"  horiz-adv-x="1024" />
      
      <glyph glyph-name="weixinzhifu" unicode="&#59017;" d="M395.846 292.415c-3.921-1.98-7.936-2.925-12.81-2.925-10.9 0-19.791 5.85-24.764 14.625l-2.006 3.864-78.106 167.913c-0.956 1.98-0.956 3.865-0.956 5.845 0 7.83 5.928 13.68 13.863 13.68 2.965 0 5.928-0.944 8.893-2.924l91.965-64.43c6.884-3.864 14.82-6.79 23.708-6.79 4.972 0 9.85 0.945 14.822 2.926L861.71 613.521c-77.149 89.804-204.684 148.384-349.135 148.384-235.371 0-427.242-157.158-427.242-351.294 0-105.368 57.361-201.017 147.323-265.447 6.88-4.905 11.852-13.68 11.852-22.45 0-2.925-0.957-5.85-2.006-8.775-6.881-26.318-18.831-69.334-18.831-71.223-0.958-2.92-2.013-6.79-2.013-10.75 0-7.83 5.929-13.68 13.865-13.68 2.963 0 5.928 0.944 7.935 2.925l92.922 53.674c6.885 3.87 14.82 6.794 22.756 6.794 3.916 0 8.889-0.944 12.81-1.98 43.496-12.644 91.012-19.53 139.48-19.53 235.372 0 427.24 157.158 427.24 351.294 0 58.58-17.78 114.143-48.467 163.003l-491.39-280.07-2.963-1.98z"  horiz-adv-x="1024" />
      
      <glyph glyph-name="zhifubao" unicode="&#58888;" d="M230.771014 319.443478c-12.614493-9.646377-25.228986-23.744928-28.93913-42.295652-5.194203-24.486957-0.742029-55.652174 22.26087-80.13913 28.93913-28.93913 72.718841-37.101449 92.011594-38.585508 51.2-3.710145 106.110145 22.26087 147.663768 50.457971 16.324638 11.130435 43.77971 34.133333 70.492754 69.750725-59.362319 30.423188-133.565217 64.556522-212.22029 61.588406-41.553623-1.484058-70.492754-9.646377-91.269566-20.776812zM983.188406 183.652174c25.971014 61.588406 40.811594 129.113043 40.811594 200.347826 0 281.971014-230.028986 512-512 512S0 665.971014 0 384s230.028986-512 512-512c170.666667 0 321.298551 83.849275 414.794203 212.22029C838.492754 127.257971 693.797101 199.976812 604.011594 243.014493c-42.295652-48.973913-105.368116-97.205797-176.602898-117.982609-44.521739-13.356522-85.333333-18.550725-126.886957-9.646377-42.295652 8.904348-72.718841 28.197101-90.527536 47.489855-8.904348 10.388406-19.292754 22.26087-27.455073 37.843479 0.742029-0.742029 0.742029-2.226087 0.742029-2.968116 0 0-4.452174 7.42029-7.420289 19.292753-1.484058 5.936232-2.968116 11.872464-3.710145 17.808696-0.742029 4.452174-0.742029 8.904348 0 12.614493-0.742029 7.42029 0 15.582609 1.484058 23.744927 4.452174 20.776812 12.614493 43.77971 35.617391 65.298551 48.973913 48.231884 115.014493 50.457971 149.147826 50.457971 50.457971-0.742029 138.017391-22.26087 212.22029-48.973913 20.776812 43.77971 34.133333 89.785507 42.295652 121.692754H304.973913v33.391304h158.052174v66.782609H272.324638v34.133333h190.701449v66.782609c0 8.904348 2.226087 16.324638 16.324638 16.324637h74.944927v-83.107246h207.026087v-33.391304H554.295652v-66.782609H719.768116S702.701449 401.066667 651.501449 309.797101c115.014493-40.811594 277.518841-104.626087 331.686957-126.144927z m0 0"  horiz-adv-x="1024" />
      
      <glyph glyph-name="add" unicode="&#58977;" d="M512-40.915619c-234.672764 0-424.915619 190.243879-424.915619 424.915619S277.327236 808.916643 512 808.916643c234.676857 0 424.916643-190.243879 424.916643-424.915619S746.676857-40.915619 512-40.915619zM724.45781 426.49586 554.491767 426.49586 554.491767 596.453716l-84.983533 0 0-169.957857L299.54219 426.49586l0-84.99172 169.966043 0 0-169.966043 84.983533 0L554.491767 341.50414l169.966043 0L724.45781 426.49586z"  horiz-adv-x="1024" />
      
      <glyph glyph-name="closefill" unicode="&#59046;" d="M512 768C300.8 768 128 595.2 128 384s172.8-384 384-384 384 172.8 384 384S723.2 768 512 768zM672 268.8c12.8-12.8 12.8-32 0-44.8s-32-12.8-44.8 0L512 339.2l-115.2-115.2c-12.8-12.8-32-12.8-44.8 0s-12.8 32 0 44.8L467.2 384 352 499.2C339.2 512 339.2 531.2 352 544s32 12.8 44.8 0L512 428.8l115.2 115.2c12.8 12.8 32 12.8 44.8 0s12.8-32 0-44.8L556.8 384 672 268.8z"  horiz-adv-x="1024" />
      
      <glyph glyph-name="remove2" unicode="&#59435;" d="M800 768 224 768c-53.024 0-96-42.976-96-96l0-32 768 0 0 32C896 725.024 853.024 768 800 768zM632.32 832l14.112-100.992L377.568 731.008l14.112 100.992L632.32 832M640 896 384 896c-26.4 0-50.976-21.376-54.656-47.552l-18.72-133.92C306.976 688.384 325.6 667.008 352 667.008l320 0c26.4 0 45.024 21.376 41.344 47.552l-18.72 133.92C690.976 874.624 666.4 896 640 896L640 896zM816 576 208 576c-35.2 0-61.408-28.672-58.208-63.744l52.416-576.512C205.376-99.328 236.8-128 272-128l480 0c35.2 0 66.624 28.672 69.792 63.744l52.416 576.512C877.408 547.328 851.2 576 816 576zM384 0l-96 0-32 448 128 0L384 0zM576 0l-128 0L448 448l128 0L576 0zM736 0l-96 0L640 448l128 0L736 0z"  horiz-adv-x="1024" />
      
      </font>
</defs>
</svg>
